<svg xmlns="http://www.w3.org/2000/svg" xmlns:xlink="http://www.w3.org/1999/xlink" width="500" zoomAndPan="magnify" viewBox="0 0 375 374.999991" height="500" preserveAspectRatio="xMidYMid meet" version="1.2"><g id="5d7cb66822"><rect x="0" width="375" y="0" height="374.999991" style="fill:#fcfdfd;fill-opacity:1;stroke:none;"/><path style=" stroke:none;fill-rule:nonzero;fill:#fcfdfd;fill-opacity:1;" d="M 72 195 C 75.195312 196.535156 78.171875 198.351562 81.183594 200.207031 C 91.222656 206.253906 101.523438 209.035156 113.199219 209.394531 C 127.484375 209.636719 141.929688 208.898438 154.765625 202.117188 C 157.035156 200.839844 159.175781 199.570312 161.25 198 L 162 196.5 C 166.363281 195.464844 169.617188 195.78125 173.953125 196.921875 C 178.039062 198.191406 181.402344 199.84375 184.976562 202.160156 C 190.792969 205.734375 197.632812 207.664062 204.433594 208.003906 C 216.695312 208.242188 226.113281 204.46875 237.074219 199.339844 C 241.664062 197.445312 246.453125 197.832031 251.34375 197.8125 L 254.039062 197.765625 C 261.300781 197.734375 267.089844 199.03125 273.609375 202.21875 C 276.167969 203.464844 278.433594 204.292969 281.25 204.75 L 281.25 206.25 C 291.460938 205.484375 300.179688 204.257812 309.457031 199.699219 C 313.824219 197.566406 317.851562 195.683594 322.800781 195.558594 C 329.335938 196.199219 334.546875 199.511719 339.855469 203.121094 C 343.472656 205.574219 346.496094 207.078125 350.859375 207.46875 L 352.65625 207.640625 L 354 207.75 L 354 209.25 L 355.96875 208.59375 C 360.453125 207.292969 365.132812 206.851562 369.75 206.25 C 369.28125 230.875 359.5625 256.039062 347.015625 276.9375 C 336.6875 293.601562 323.300781 309.171875 308.25 321.75 L 306.496094 323.277344 C 300.480469 328.398438 293.988281 332.640625 287.25 336.75 L 285.671875 337.714844 C 259.898438 353.234375 229.273438 362.40625 199.15625 363.21875 C 195.910156 363.277344 192.667969 363.289062 189.421875 363.28125 L 187.347656 363.28125 C 175.671875 363.253906 164.453125 362.433594 153 360 L 150.9375 359.5625 C 146.578125 358.605469 142.285156 357.480469 138 356.25 L 136.269531 355.765625 C 123.117188 352.03125 110.398438 346.761719 98.25 340.5 L 98.25 339 L 96.46875 338.53125 C 90.230469 336.164062 84.851562 332.101562 79.40625 328.3125 L 77.652344 327.105469 L 76.027344 325.957031 L 74.550781 324.925781 L 73.5 324 L 73.5 322.5 L 72.234375 322.03125 C 69.863281 320.621094 68.5 318.609375 66.75 316.5 L 64.5 315.75 C 63.210938 314.417969 63.210938 314.417969 61.875 312.796875 C 60.277344 310.867188 59.113281 309.65625 57 308.25 L 57 306.75 L 55.5 306.75 C 54.4375 305.589844 53.429688 304.375 52.453125 303.140625 C 49.855469 299.871094 49.855469 299.871094 47.171875 296.667969 C 41.664062 290.242188 37.148438 283.144531 32.527344 276.070312 C 31.691406 274.792969 30.847656 273.519531 30 272.25 L 30 270 L 28.5 270 C 27.871094 268.671875 27.246094 267.34375 26.625 266.015625 L 25.570312 263.773438 C 24.75 261.75 24.75 261.75 24.75 259.5 L 23.25 259.5 C 21 254.625 21 254.625 21 251.25 L 19.5 251.25 C 9.621094 217.675781 9.621094 217.675781 9.65625 206.0625 L 9.648438 204.128906 C 9.75 202.5 9.75 202.5 10.5 201 C 14.480469 198.75 14.480469 198.75 17.25 198.75 L 17.25 197.25 C 22.839844 196.882812 27.03125 197.769531 32.203125 199.828125 C 39.878906 202.75 39.878906 202.75 48 203.25 C 52.683594 202.375 56.480469 199.519531 60.363281 196.890625 C 63.929688 194.734375 67.90625 194.191406 72 195 "/><path style=" stroke:none;fill-rule:nonzero;fill:#16345b;fill-opacity:1;" d="M 219 22.5 C 239.953125 23.65625 260.859375 30.9375 279 41.25 L 280.5 42 L 280.5 43.5 L 284.25 44.25 L 284.25 45.75 L 288 46.5 L 288 48 L 290.25 48 L 290.25 49.5 L 292.5 49.5 L 292.5 51 L 294.75 51 L 294.75 52.5 L 296.296875 53.015625 C 299.023438 54.234375 301.519531 55.746094 303.75 57.75 L 303.75 59.25 L 308.25 61.5 L 308.25 63 L 309.75 63 L 309.75 64.5 L 311.078125 65.089844 C 312.867188 66.0625 314.0625 67.121094 315.503906 68.554688 L 317.011719 70.058594 L 318.5625 71.625 L 320.148438 73.191406 L 321.644531 74.695312 L 323.015625 76.070312 L 324 77.25 L 324 78.75 L 325.5 78.75 L 325.5 80.25 L 327 80.25 C 328.050781 81.425781 328.050781 81.425781 329.257812 83.078125 L 330.601562 84.898438 L 332.015625 86.859375 L 333.453125 88.832031 C 342.460938 101.28125 342.460938 101.28125 345 107.25 L 345 109.5 L 346.5 109.5 L 346.5 112.5 L 348 112.5 C 348.632812 113.808594 349.257812 115.121094 349.875 116.4375 L 350.929688 118.652344 C 351.75 120.75 351.75 120.75 351.75 123.75 L 353.25 123.75 L 353.691406 125.285156 L 354.28125 127.3125 L 354.859375 129.316406 C 355.4375 131.230469 355.4375 131.230469 356.320312 132.84375 C 357.277344 134.828125 357.097656 136.582031 357 138.75 L 358.5 138.75 L 357.75 141.75 L 359.25 141.75 C 361.085938 150.238281 362.792969 158.535156 363 167.25 L 363.046875 169.058594 C 363.507812 189.488281 363.507812 189.488281 360.75 195 C 357.757812 194.625 355.433594 193.511719 352.773438 192.132812 C 347.152344 189.339844 341.257812 187.070312 335.25 185.25 L 332.4375 184.359375 C 328.179688 183.367188 323.835938 183.292969 319.5 183.75 C 317.652344 184.363281 315.875 185.144531 314.175781 186.09375 C 312.75 186.75 312.75 186.75 309.75 186.75 L 309.75 188.25 C 308.578125 188.738281 307.410156 189.222656 306.234375 189.703125 L 304.257812 190.519531 C 298.058594 192.773438 291.070312 192.574219 284.609375 191.601562 C 280.203125 190.640625 276.105469 189.296875 271.960938 187.535156 C 262.117188 183.589844 252.285156 181.789062 241.738281 183.285156 C 236.886719 184.132812 232.039062 185.121094 227.277344 186.394531 C 225.582031 186.789062 223.917969 186.992188 222.1875 187.171875 L 220.371094 187.363281 L 219 187.5 C 219.992188 179.835938 221.015625 172.191406 222.367188 164.582031 C 224.414062 153.027344 225.523438 141.4375 226.5 129.75 L 226.667969 127.792969 C 229.082031 98.675781 226.09375 69.144531 221.300781 40.425781 C 220.308594 34.460938 219.398438 28.546875 219 22.5 "/><path style=" stroke:none;fill-rule:nonzero;fill:#fdfefe;fill-opacity:1;" d="M 0 0 L 375 0 L 375 147 L 373.5 145.5 C 373.03125 143.367188 372.738281 141.234375 372.421875 139.074219 L 372 137.25 L 370.5 136.5 L 371.25 134.25 L 369.75 133.5 C 369.164062 131.890625 369.164062 131.890625 368.625 129.890625 C 368.097656 127.953125 367.617188 126.222656 366.679688 124.445312 C 366 123 366 123 366 120 L 364.5 120 L 364.109375 118.671875 C 358.222656 100.691406 345.488281 83.96875 332.65625 70.296875 C 331.011719 68.527344 329.410156 66.71875 327.84375 64.875 C 325.988281 62.71875 323.988281 61.011719 321.75 59.25 L 321.75 57.75 L 318 56.25 L 318 54.75 L 316.5 54.75 C 315.234375 53.515625 313.984375 52.265625 312.75 51 C 310.265625 48.90625 310.265625 48.90625 307.5 47.25 L 307.5 45.75 C 305.75 44.84375 304.128906 44.125 302.25 43.5 L 302.25 42 L 300.46875 41.296875 C 298.5 40.5 298.5 40.5 297 39.75 L 297 38.25 L 295.433594 37.675781 C 292.929688 36.613281 290.671875 35.3125 288.328125 33.9375 C 283.558594 31.171875 278.71875 28.636719 273.75 26.25 L 271.523438 25.15625 C 240.898438 10.5 207.203125 5.625 173.488281 7.847656 C 140.054688 10.492188 107.886719 22.132812 80.210938 40.984375 C 76.351562 43.667969 72.640625 46.523438 69 49.5 C 68.582031 49.839844 68.164062 50.183594 67.734375 50.53125 C 56.113281 59.378906 56.113281 59.378906 47.25 70.5 L 45.75 70.5 L 45.203125 71.761719 C 44.039062 73.882812 42.605469 75.515625 41.015625 77.34375 C 21.457031 100.355469 9.136719 127.621094 3.683594 157.269531 C 3.140625 160.335938 2.664062 163.414062 2.25 166.5 L 0.75 166.5 L 0.75 172.5 L 0 172.5 Z M 0 0 "/><path style=" stroke:none;fill-rule:nonzero;fill:#fcfdfd;fill-opacity:1;" d="M 0 203.25 L 0.75 203.25 L 0.75 212.25 L 2.25 212.25 L 2.464844 213.527344 C 5.863281 233.410156 10.621094 252.109375 20.199219 270 C 21.039062 271.574219 21.855469 273.15625 22.675781 274.742188 C 30.382812 289.378906 40.75 302.898438 52.644531 314.398438 C 54.101562 315.851562 55.429688 317.375 56.765625 318.9375 C 58.671875 321.167969 60.691406 322.933594 63 324.75 L 63 326.25 L 64.167969 326.75 C 66.753906 328.164062 68.972656 329.980469 71.296875 331.78125 C 81.609375 339.628906 92.496094 346.304688 104.25 351.75 L 105.839844 352.5 C 120.5625 359.414062 135.574219 364.191406 151.5 367.5 L 153.742188 367.984375 C 168.894531 371.144531 184.15625 370.835938 199.5625 370.679688 L 201.632812 370.660156 C 205.003906 370.613281 208.179688 370.394531 211.5 369.75 C 212.902344 369.625 214.304688 369.5 215.703125 369.378906 C 236.425781 367.503906 257.183594 361.074219 275.625 351.515625 C 278.25 350.25 278.25 350.25 280.5 350.25 L 280.5 348.75 L 282.828125 347.785156 C 295.4375 342.367188 306.898438 333.648438 317.25 324.75 C 317.851562 324.242188 318.449219 323.734375 319.066406 323.210938 C 322.226562 320.480469 325.074219 317.65625 327.765625 314.464844 C 329.210938 312.796875 330.722656 311.207031 332.253906 309.617188 C 341.648438 299.75 349.625 288.671875 356.179688 276.738281 C 356.988281 275.28125 357.804688 273.828125 358.632812 272.378906 C 361.832031 266.671875 364.335938 260.886719 366.523438 254.722656 C 367.300781 252.554688 368.136719 250.457031 369.046875 248.34375 C 371.328125 242.757812 372.703125 236.820312 374.25 231 L 375 231 L 375 375 L 0 375 Z M 0 203.25 "/><path style=" stroke:none;fill-rule:nonzero;fill:#16345b;fill-opacity:1;" d="M 276.75 27 L 281.203125 29.15625 C 284.863281 30.988281 288.410156 32.984375 291.9375 35.0625 L 293.457031 35.949219 C 294.664062 36.671875 295.835938 37.453125 297 38.25 L 297 39.75 L 298.78125 40.453125 C 300.75 41.25 300.75 41.25 302.25 42 L 302.25 43.5 L 303.609375 43.78125 C 305.25 44.25 305.25 44.25 307.5 45.75 L 307.5 47.25 L 309.046875 47.71875 C 311.9375 49.070312 314.308594 50.925781 316.5 53.25 L 316.5 54.75 L 318 54.75 L 318 56.25 L 321.75 57.75 L 321.75 59.25 L 323.070312 59.828125 C 328.242188 62.664062 332.222656 68.300781 336 72.75 L 337.679688 74.679688 C 345.378906 83.683594 351.945312 93.246094 357.796875 103.546875 L 359.042969 105.738281 C 364.5 115.535156 364.5 115.535156 364.5 120 L 366 120 C 366.722656 121.890625 367.441406 123.78125 368.15625 125.671875 L 368.769531 127.273438 C 370.011719 130.566406 371.054688 133.855469 372 137.25 L 372.714844 139.003906 C 375.957031 147.628906 375.492188 156.527344 375.503906 165.613281 L 375.535156 171.078125 C 375.550781 174.890625 375.558594 178.699219 375.554688 182.511719 C 375.554688 187.335938 375.597656 192.160156 375.648438 196.984375 C 375.683594 200.75 375.6875 204.511719 375.683594 208.273438 C 375.691406 210.050781 375.703125 211.824219 375.726562 213.601562 C 375.949219 232.324219 370.949219 249.3125 362.484375 265.96875 L 361.71875 267.480469 C 360.898438 269.070312 360.078125 270.664062 359.25 272.25 L 358.414062 273.875 C 352.023438 286.222656 344.0625 297.398438 334.5 307.5 C 333.621094 308.496094 332.746094 309.496094 331.875 310.5 L 329.25 313.5 L 327.636719 315.355469 C 324.140625 319.3125 320.59375 322.921875 316.5 326.25 L 314.265625 328.089844 C 304.902344 335.683594 294.46875 343.644531 283.5 348.75 L 280.5 348.75 L 280.5 350.25 C 275.089844 353.039062 269.691406 355.585938 264 357.75 C 263.191406 358.078125 262.382812 358.410156 261.550781 358.75 C 245.425781 365.21875 226.730469 370.703125 209.25 370.5 L 207 371.25 C 205.945312 371.328125 204.886719 371.371094 203.828125 371.382812 L 201.886719 371.410156 L 199.78125 371.429688 L 197.585938 371.449219 C 181.972656 371.578125 166.828125 371.5625 151.5 368.25 L 149.097656 367.75 C 118.839844 361.363281 91.382812 348.363281 67.128906 329.222656 C 65.226562 327.691406 65.226562 327.691406 63 326.25 L 63 324.75 L 61.679688 324.171875 C 57.082031 321.652344 53.597656 316.867188 50.222656 312.925781 C 48.480469 310.945312 46.667969 309.042969 44.859375 307.125 C 24.980469 285.691406 11.246094 258.375 4.640625 230.015625 C 3.308594 224.09375 2.375 218.332031 2.25 212.25 L 0.75 212.25 C -0.0976562 204.757812 -0.117188 197.292969 -0.0976562 189.761719 C -0.09375 187.679688 -0.0976562 185.601562 -0.101562 183.519531 C -0.101562 182.179688 -0.101562 180.835938 -0.101562 179.496094 L -0.105469 177.636719 C -0.0898438 173.859375 0.210938 170.238281 0.75 166.5 L 2.25 166.5 L 2.28125 164.78125 C 2.886719 150.839844 6.957031 137.429688 12 124.5 L 12.601562 122.949219 C 19.863281 104.628906 30.570312 88.5625 43.492188 73.777344 C 45.007812 72.136719 45.007812 72.136719 45.75 70.5 L 47.25 70.5 L 47.835938 69.179688 C 48.832031 67.351562 49.929688 66.128906 51.394531 64.65625 L 52.996094 63.046875 L 54.703125 61.359375 L 56.457031 59.621094 C 60.699219 55.453125 65 51.582031 69.75 48 L 70.972656 47.058594 C 98.496094 25.898438 130.601562 12.640625 164.984375 7.945312 C 203.230469 3.324219 242.425781 9.363281 276.75 27 M 170.78125 16.285156 C 168.835938 16.492188 166.890625 16.65625 164.941406 16.804688 C 157.242188 17.429688 150.175781 18.945312 142.796875 21.210938 C 140.871094 21.789062 138.9375 22.328125 136.996094 22.863281 C 127.667969 25.433594 118.613281 28.015625 110.25 33 C 108.421875 33.5625 108.421875 33.5625 107.25 33.75 L 107.25 35.25 L 105.648438 35.46875 C 103.125 36.09375 101.316406 37.136719 99.09375 38.484375 L 96.851562 39.835938 L 94.5 41.25 L 91.953125 42.65625 C 88.925781 44.378906 86.171875 46.425781 83.390625 48.515625 C 82.402344 49.253906 81.414062 49.992188 80.421875 50.726562 L 79.121094 51.703125 C 78 52.5 78 52.5 76.5 53.25 L 76.5 54.75 L 75.265625 55.285156 C 62.441406 62.285156 51.261719 76.117188 42.75 87.75 L 40.84375 90.289062 C 30.105469 104.769531 21.964844 120.832031 16.5 138 L 15.972656 139.636719 C 13.984375 145.859375 12.363281 151.949219 11.519531 158.449219 C 11.261719 160.410156 10.90625 162.316406 10.5 164.25 C 9.507812 169.09375 8.910156 173.558594 9 178.5 L 8.25 179.25 C 8.175781 180.6875 8.152344 182.125 8.15625 183.5625 L 8.148438 185.941406 C 8.242188 188.050781 8.523438 189.949219 9 192 C 11.445312 191.605469 13.59375 190.921875 15.890625 190.03125 C 19.1875 188.902344 21.871094 188.945312 25.304688 189.359375 C 27.058594 189.761719 28.40625 190.4375 30 191.25 C 32 191.375 32 191.375 33.75 191.25 L 33.75 192.75 C 38.015625 194.273438 42.203125 195.542969 46.765625 195.417969 C 50.132812 194.707031 52.796875 192.894531 55.671875 191.066406 C 60.378906 188.085938 64.726562 186.734375 70.28125 186.503906 C 74.71875 187.140625 78.519531 189.691406 82.28125 191.980469 C 93.410156 198.726562 104.210938 201.613281 117.1875 201.9375 C 129.546875 201.65625 142.148438 200.566406 153 194.25 C 155.183594 192.894531 157.34375 191.507812 159.488281 190.089844 C 161.441406 188.882812 162.996094 188.292969 165.285156 188.097656 C 173 187.964844 178.230469 190.308594 185.003906 193.78125 C 187.765625 195.128906 190.558594 196.332031 193.40625 197.484375 L 196.167969 198.601562 C 202.683594 200.867188 209.046875 200.691406 215.765625 199.453125 C 219.742188 198.550781 223.15625 197.222656 226.78125 195.421875 C 236.234375 190.75 245.1875 189.183594 255.75 189.75 L 257.25 189.8125 C 263.558594 190.078125 263.558594 190.078125 266.25 190.5 L 267 192 C 268.25 192.253906 269.5 192.503906 270.75 192.75 C 272.03125 193.296875 273.3125 193.84375 274.585938 194.417969 C 279.664062 196.679688 283.910156 197.800781 289.554688 197.496094 C 295.476562 196.832031 300.535156 195.082031 306 192.75 C 307.59375 192.078125 309.1875 191.40625 310.78125 190.734375 L 313 189.789062 C 317.648438 187.957031 322.039062 187.84375 327 188.25 C 333 189.472656 337.976562 192.769531 343.007812 196.101562 C 346.359375 198.308594 349.417969 199.863281 353.433594 200.527344 C 359.542969 200.714844 364.859375 198.605469 370.5 196.5 C 371.496094 192.097656 371.25 187.800781 371.0625 183.328125 L 370.957031 180.8125 C 370.570312 172.945312 369.625 165.253906 368.25 157.5 L 367.9375 155.691406 C 365.492188 141.933594 361.199219 128.660156 354.75 116.25 L 353.773438 114.359375 C 348.925781 105.046875 343.679688 96.234375 337.5 87.75 L 336.039062 85.679688 C 335.070312 84.335938 334.042969 83.035156 333 81.75 L 331.5 81.75 L 331.011719 80.515625 C 329.652344 78.144531 327.785156 76.402344 325.828125 74.53125 C 321.839844 70.679688 321.839844 70.679688 321 69 L 319.5 69 L 318.972656 67.707031 C 317.757812 65.574219 316.285156 64.285156 314.4375 62.671875 L 312.410156 60.894531 L 310.5 59.25 L 309.058594 57.980469 C 308.066406 57.121094 307.039062 56.304688 306 55.5 L 304.5 55.5 L 304.5 54 L 303.1875 53.4375 C 301.5 52.5 301.5 52.5 300 50.953125 C 298.617188 49.402344 298.617188 49.402344 296.8125 48.9375 L 295.5 48.75 L 295.5 47.25 L 294.417969 46.667969 C 291.246094 44.933594 288.121094 43.113281 285.050781 41.203125 C 263.582031 27.933594 238.214844 19.046875 213.027344 16.691406 C 211.5 16.5 211.5 16.5 210.082031 16.121094 C 197.8125 13.238281 183.183594 14.921875 170.78125 16.285156 M 56.625 199.546875 C 53.769531 201.476562 51.464844 202.710938 48 203.25 C 41.695312 203.632812 36.082031 201.375 30.324219 199.078125 C 25.84375 197.367188 22.035156 196.933594 17.25 197.25 L 17.25 198.75 L 15.5625 199.03125 C 13.628906 199.472656 12.1875 199.976562 10.5 201 C 9.113281 203.773438 9.578125 206.960938 9.75 210 C 10.152344 213.214844 10.730469 216.382812 11.34375 219.5625 L 11.847656 222.222656 C 13.757812 232.054688 16.238281 241.777344 19.5 251.25 L 21 251.25 L 21.28125 253.265625 C 21.707031 255.527344 22.324219 257.402344 23.25 259.5 L 24.75 259.5 L 25.027344 260.753906 C 25.558594 262.722656 26.277344 264.550781 27.046875 266.4375 L 27.871094 268.464844 L 28.5 270 L 30 270 C 30.140625 270.664062 30.140625 270.664062 30.289062 271.34375 C 31.015625 273.953125 32.503906 276.121094 33.9375 278.390625 L 34.933594 279.972656 C 40.394531 288.496094 46.613281 296.539062 53.542969 303.910156 C 54.75 305.25 54.75 305.25 55.5 306.75 L 57 306.75 L 57 308.25 C 58.292969 309.527344 58.292969 309.527344 59.90625 310.828125 C 61.847656 312.4375 63.085938 313.625 64.5 315.75 L 65.949219 316.46875 C 67.757812 317.378906 68.597656 318.382812 69.84375 319.96875 C 70.921875 321.378906 70.921875 321.378906 72 322.5 L 73.5 322.5 L 73.5 324 C 74.535156 324.964844 74.535156 324.964844 75.921875 325.90625 L 77.503906 327.027344 L 79.21875 328.21875 L 80.953125 329.433594 C 86.027344 332.933594 91.226562 336.242188 96.75 339 L 98.25 339 L 98.25 340.5 C 118.753906 350.574219 139.328125 357.953125 162 361.5 L 164.425781 361.902344 C 172.492188 363.128906 180.433594 363.269531 188.578125 363.234375 L 190.679688 363.230469 C 222.914062 363.125 255.03125 355.425781 283.152344 339.347656 C 291.933594 334.125 300.464844 328.375 308.25 321.75 L 310.078125 320.328125 C 312.109375 318.660156 313.910156 316.878906 315.75 315 C 316.558594 314.207031 317.367188 313.417969 318.175781 312.628906 C 323.484375 307.417969 328.445312 302.140625 333 296.25 L 335.339844 293.300781 C 340.640625 286.570312 345.332031 279.730469 349.5 272.25 L 350.34375 270.777344 C 361.40625 251.367188 368.75 228.617188 369.75 206.25 C 361.765625 207.242188 361.765625 207.242188 354 209.25 L 354 207.75 L 352.296875 207.578125 C 346.355469 206.816406 342.414062 205.082031 337.5 201.75 C 331.511719 197.832031 331.511719 197.832031 324.75 195.75 C 318.457031 195.59375 313.792969 197.480469 308.25 200.25 C 301.785156 203.339844 295.875 204.789062 288.75 205.5 L 286.417969 205.753906 C 284.695312 205.933594 282.972656 206.097656 281.25 206.25 L 281.25 204.75 L 278.4375 203.859375 C 274.730469 202.632812 271.171875 201.125 267.597656 199.566406 C 259.71875 196.503906 249.773438 197.296875 241.5 198 C 237.191406 198.832031 233.402344 200.542969 229.5 202.5 C 228 203.191406 226.5 203.878906 225 204.5625 L 223.21875 205.441406 C 215.296875 208.695312 206.628906 208.410156 198.25 207.425781 C 192.882812 206.367188 188.484375 204.234375 183.753906 201.53125 C 178.601562 198.597656 173.015625 195.8125 166.980469 195.722656 C 164.449219 195.894531 164.449219 195.894531 162 196.5 C 160.980469 197.480469 159.980469 198.480469 159 199.5 C 149.492188 205.664062 139.152344 208.34375 127.953125 209.128906 C 112.828125 209.816406 98.371094 209.574219 84.652344 202.507812 C 80.820312 200.433594 77.160156 198.117188 73.5 195.75 C 71.339844 194.671875 69.410156 194.804688 67.023438 194.84375 C 62.945312 195.207031 59.902344 197.28125 56.625 199.546875 "/><path style=" stroke:none;fill-rule:nonzero;fill:#15345b;fill-opacity:1;" d="M 198.75 22.5 C 199.484375 25.660156 199.714844 28.785156 199.875 32.015625 L 199.96875 33.742188 C 200.15625 37.433594 200.304688 41.125 200.4375 44.816406 L 200.53125 47.445312 C 200.59375 49.164062 200.652344 50.882812 200.707031 52.605469 L 200.789062 55.019531 L 200.859375 57.164062 C 201.007812 59.394531 201.359375 61.546875 201.75 63.75 C 201.894531 65.25 202.019531 66.75 202.125 68.25 L 202.308594 70.824219 L 202.5 73.5 L 202.714844 76.152344 C 203.15625 81.78125 203.34375 87.351562 203.25 93 L 201.988281 92.367188 L 200.25 91.5 L 198.417969 90.585938 C 193.800781 88.378906 189.539062 87.042969 184.5 86.25 L 182.640625 85.847656 C 176 84.625 169.308594 85.820312 162.75 87 L 161.03125 87.292969 C 149.34375 89.292969 137.976562 92.164062 126.75 96 L 126.75 97.5 L 125.320312 98.164062 C 121.34375 100.066406 117.867188 102.113281 114.445312 104.898438 L 113.25 105.75 L 111.75 105.75 L 111.179688 107.078125 C 110.125 108.972656 108.984375 110.0625 107.34375 111.46875 L 105.800781 112.8125 C 104.25 114 104.25 114 102.648438 114.71875 L 101.25 115.5 C 100.421875 116.921875 100.421875 116.921875 99.75 118.5 C 99.03125 119.460938 98.28125 120.398438 97.5 121.3125 L 96.328125 122.707031 L 95.25 123.75 L 93.75 123.75 L 93.75 125.25 L 92.25 125.25 L 92.25 127.5 C 91.253906 128.503906 90.253906 129.503906 89.25 130.5 C 87.5625 132.726562 85.996094 135.035156 84.421875 137.34375 L 83.148438 139.171875 C 80.28125 143.363281 77.90625 147.652344 75.75 152.25 L 74.25 152.25 L 73.960938 153.535156 C 71.652344 162.132812 67.285156 172.40625 61.5 179.25 L 60 179.25 L 58.5 183 L 57 183 L 56.429688 184.375 C 55.085938 186.726562 53.304688 187.625 51.007812 188.972656 C 49.199219 189.90625 47.789062 190.347656 45.75 190.5 L 42.984375 190.734375 C 39.039062 190.660156 35.691406 189.367188 32.25 187.5 C 28.726562 184.984375 25.953125 182.40625 24 178.5 C 20.925781 165.878906 23.1875 152.632812 26.59375 140.3125 C 34.507812 113.414062 49.292969 90.59375 69.144531 70.988281 C 72.445312 67.867188 75.90625 65.023438 79.5 62.25 L 80.742188 61.289062 C 107.539062 40.695312 139.0625 28.476562 172.5 24 C 181.253906 22.925781 189.925781 22.234375 198.75 22.5 "/><path style=" stroke:none;fill-rule:nonzero;fill:#16345b;fill-opacity:1;" d="M 170.390625 94.3125 L 172.828125 94.265625 C 179.160156 94.234375 184.71875 95.160156 190.511719 97.769531 C 194.398438 100.1875 198.261719 102.753906 201 106.5 L 201 108.75 L 202.5 108.75 C 204.835938 113.207031 205.703125 117.308594 205.558594 122.296875 C 204.847656 135 200.066406 144.621094 193.695312 155.480469 L 192.75 156.75 L 191.25 156.75 L 189.75 159.75 L 189.121094 161.199219 C 188.113281 162.988281 187.019531 163.976562 185.4375 165.28125 C 183.429688 166.972656 181.535156 168.683594 179.71875 170.578125 L 177.75 172.5 L 176.25 172.5 L 176.25 174 C 174.964844 174.914062 174.964844 174.914062 173.296875 175.875 C 172.261719 176.46875 171.246094 177.09375 170.25 177.75 L 169.5 179.25 L 167.25 179.25 L 167.25 180.75 L 165 180.75 L 165 182.25 L 161.25 183 L 161.25 184.5 C 145.492188 192.398438 131.003906 197.144531 113.234375 196.683594 C 106.574219 196.273438 101.042969 194.648438 95.441406 190.996094 C 91.335938 187.96875 88.191406 184.765625 86.082031 180.074219 C 83.664062 173.542969 83.53125 167.53125 84.617188 160.703125 C 86.753906 148.496094 92.488281 138.925781 100.324219 129.417969 C 112.117188 115.933594 126.914062 105.078125 143.875 99.015625 C 152.890625 96.105469 160.921875 94.359375 170.390625 94.3125 "/><path style=" stroke:none;fill-rule:nonzero;fill:#122f55;fill-opacity:1;" d="M 198.75 22.5 C 199.484375 25.660156 199.714844 28.785156 199.875 32.015625 L 199.96875 33.742188 C 200.15625 37.433594 200.304688 41.125 200.4375 44.816406 L 200.53125 47.445312 C 200.59375 49.164062 200.652344 50.882812 200.707031 52.605469 L 200.789062 55.019531 L 200.859375 57.164062 C 201.007812 59.394531 201.359375 61.546875 201.75 63.75 C 201.894531 65.25 202.019531 66.75 202.125 68.25 L 202.308594 70.824219 L 202.5 73.5 L 202.714844 76.152344 C 203.15625 81.78125 203.34375 87.351562 203.25 93 L 201.988281 92.367188 L 200.25 91.5 L 198.417969 90.585938 C 193.800781 88.378906 189.539062 87.042969 184.5 86.25 L 182.640625 85.847656 C 176 84.625 169.308594 85.820312 162.75 87 L 161.03125 87.292969 C 149.34375 89.292969 137.976562 92.164062 126.75 96 L 126.75 97.5 L 125.320312 98.164062 C 121.34375 100.066406 117.867188 102.113281 114.445312 104.898438 L 113.25 105.75 L 111.75 105.75 L 111.179688 107.078125 C 110.125 108.972656 108.984375 110.0625 107.34375 111.46875 L 105.800781 112.8125 C 104.25 114 104.25 114 102.648438 114.71875 L 101.25 115.5 C 100.421875 116.921875 100.421875 116.921875 99.75 118.5 C 99.03125 119.460938 98.28125 120.398438 97.5 121.3125 L 96.328125 122.707031 L 95.25 123.75 L 93.75 123.75 L 93.75 125.25 L 92.25 125.25 L 92.25 127.5 C 91.253906 128.503906 90.253906 129.503906 89.25 130.5 C 87.5625 132.726562 85.996094 135.035156 84.421875 137.34375 L 83.148438 139.171875 C 80.28125 143.363281 77.90625 147.652344 75.75 152.25 L 74.25 152.25 L 73.960938 153.535156 C 71.652344 162.132812 67.285156 172.40625 61.5 179.25 L 60 179.25 L 58.5 183 L 57 183 L 56.429688 184.375 C 55.085938 186.726562 53.304688 187.625 51.007812 188.972656 C 49.199219 189.90625 47.789062 190.347656 45.75 190.5 L 42.984375 190.734375 C 39.039062 190.660156 35.691406 189.367188 32.25 187.5 C 28.726562 184.984375 25.953125 182.40625 24 178.5 C 20.925781 165.878906 23.1875 152.632812 26.59375 140.3125 C 34.507812 113.414062 49.292969 90.59375 69.144531 70.988281 C 72.445312 67.867188 75.90625 65.023438 79.5 62.25 L 80.742188 61.289062 C 107.539062 40.695312 139.0625 28.476562 172.5 24 C 181.253906 22.925781 189.925781 22.234375 198.75 22.5 M 176.25 27.75 L 176.25 29.25 L 173.296875 29.203125 C 172.28125 29.183594 171.265625 29.199219 170.25 29.25 L 169.5 30 L 163.5 30 L 162.75 30.75 C 160.109375 31.15625 157.464844 31.476562 154.8125 31.800781 C 152.609375 32.1875 151.144531 32.609375 149.25 33.75 L 148.5 32.25 L 148.5 34.5 L 141.75 33.75 L 141 36 L 139.667969 35.542969 L 138 35.25 C 136.582031 35.945312 135.167969 36.652344 133.777344 37.40625 C 130.589844 38.917969 127.167969 39.671875 123.75 40.5 L 123.75 42 L 120 42 L 119.25 45 L 116.25 44.25 L 116.25 45.75 L 109.5 47.25 L 109.5 48.75 L 108 48.75 L 108 50.25 L 105 51 L 105 53.25 L 103.6875 52.734375 L 102 52.5 C 100.3125 53.515625 100.3125 53.515625 99 54.75 L 101.25 54.75 L 101.25 56.25 L 93 57 L 92.25 60.75 L 88.5 60.75 L 88.5 62.25 L 85.5 63 L 85.5 66 L 83.25 66.75 L 84 68.25 L 81 69 L 81 73.5 L 75.75 73.5 L 75.75 78.75 L 73.5 78.75 L 73.5 74.25 C 72.011719 74.449219 72.011719 74.449219 70.5 75 L 69.75 77.25 L 68.25 78 L 68.25 80.25 L 66 79.5 L 64.5 83.25 L 63 83.25 L 63.75 86.25 L 60.75 85.5 C 59.105469 88 58.171875 90.03125 57.75 93 L 54.75 93.75 L 54.75 96.75 L 52.5 96 L 51.75 101.25 L 48 100.5 L 47.765625 101.671875 C 47.25 103.5 47.25 103.5 46.078125 106.125 C 44.808594 108.738281 44.808594 108.738281 45 111.75 L 42 112.5 L 42 114 L 40.640625 115.171875 C 38.675781 117.359375 38.125 119.246094 37.292969 122.023438 C 36.75 123.75 36.75 123.75 35.53125 126.46875 C 34.457031 129.105469 34.074219 131.433594 33.75 134.25 L 33 136.5 L 31.5 136.5 C 31.332031 137.6875 31.175781 138.875 31.03125 140.0625 L 30.765625 142.066406 C 30.621094 144.019531 30.621094 144.019531 31.484375 145.746094 L 32.25 147 L 29.25 147.75 L 29.671875 149.4375 C 29.992188 151.460938 29.886719 152.585938 29.25 154.5 L 27.75 154.5 C 27.457031 156.308594 27.175781 158.121094 26.90625 159.9375 L 26.652344 161.488281 C 26.316406 163.78125 26.125 165.421875 26.957031 167.613281 L 27.75 168.75 L 27.75 165 L 29.25 165 L 29.15625 167.671875 C 29.144531 170.792969 29.765625 173.296875 30.75 176.25 C 32.617188 176.765625 34.035156 177 36 177 L 36 178.5 L 37.5 178.5 L 37.5 177 L 39.75 177.75 L 40.5 182.25 L 42.984375 181.875 C 45.75 181.5 45.75 181.5 48 181.5 C 49.613281 180.789062 49.613281 180.789062 51 180 L 51 177 L 48.09375 176.578125 L 46.457031 176.339844 L 45 176.25 L 43.5 177 L 43.5 175.5 L 47.25 174.75 C 48.15625 172.421875 48.15625 172.421875 48 169.5 L 51 169.5 L 51 167.25 L 60.75 167.25 L 61.5 168.75 L 62.25 164.25 L 60.75 164.25 L 60.75 162.75 L 62.90625 162.1875 L 65.25 161.25 C 66.375 159.9375 66.375 159.9375 66.75 158.25 C 66.875 156.25 66.875 156.25 66.75 154.5 L 68.25 153.75 C 69.808594 152.191406 70.148438 151.378906 70.828125 149.34375 C 71.675781 146.957031 72.691406 145.253906 74.25 143.25 L 74.25 141 L 75.75 141 L 76.359375 139.640625 C 77.25 138 77.25 138 78.46875 136.828125 L 79.5 135.75 L 79.5 133.5 L 81.75 132.75 C 82.5625 131.4375 82.5625 131.4375 83.25 129.75 L 84.46875 127.40625 C 85.609375 125.421875 85.609375 125.421875 85.5 123.75 L 89.25 123 L 89.4375 121.21875 L 90 119.25 C 91.453125 118.359375 91.453125 118.359375 93 117.75 L 94.5 116.25 L 94.875 114.703125 L 95.25 113.25 L 96.75 112.5 L 95.25 112.5 L 97.125 110.71875 L 99 108.75 L 99 107.25 L 102 106.5 L 102 104.25 L 103.6875 103.96875 C 105.660156 103.519531 107.066406 103.105469 108.75 102 C 109.699219 100.472656 109.699219 100.472656 110.25 99 L 111.75 99 L 112.5 96.75 L 114 96 L 114 93.75 L 120 93.75 L 120 91.5 L 121.5 91.5 L 121.5 88.5 L 126.75 88.5 L 126.75 90 C 129.855469 90.15625 129.855469 90.15625 132.75 89.25 L 132 86.25 L 134.25 87.75 C 136.21875 87.875 136.21875 87.875 138 87.75 L 137.25 84.75 L 138.75 84.75 L 140.25 87 L 141.75 86.25 L 141.75 84.75 C 146.71875 84.65625 146.71875 84.65625 149.25 85.5 L 150 84 C 151.972656 83.34375 153.265625 83.125 155.296875 83.039062 L 157.097656 82.957031 L 159 82.875 C 163.714844 82.65625 168.394531 82.359375 173.09375 81.886719 C 175.394531 81.695312 177.691406 81.75 180 81.75 C 182.257812 81.546875 184.503906 81.285156 186.75 81 L 186.75 82.5 L 188.203125 82.078125 L 189.75 81.75 L 190.5 82.5 C 192 82.53125 193.5 82.53125 195 82.5 L 195 81 L 198 80.25 C 198.019531 77.96875 198.035156 75.6875 198.046875 73.40625 L 198.066406 71.460938 C 198.078125 68.039062 197.882812 64.875 197.25 61.5 C 197.21875 60.46875 197.21875 59.4375 197.25 58.40625 C 197.3125 53.238281 196.855469 48.089844 196.078125 42.984375 C 195.726562 40.324219 195.722656 37.792969 195.796875 35.113281 L 195.75 33.75 L 195 33 C 194.96875 31.25 194.96875 29.5 195 27.75 L 193.5 27.75 L 193.5 30 L 192.75 27.75 C 187.117188 27.121094 181.867188 26.941406 176.25 27.75 "/><path style=" stroke:none;fill-rule:nonzero;fill:#15345b;fill-opacity:1;" d="M 205.5 21.75 L 216 21.75 C 217.171875 25.496094 217.78125 29.101562 218.25 33 L 218.445312 34.601562 C 224.457031 83.875 224.457031 83.875 224.4375 106.734375 L 224.4375 108.53125 C 224.382812 126.542969 224.382812 126.542969 222.75 134.25 C 222.609375 135.609375 222.484375 136.96875 222.375 138.328125 C 222.140625 141.257812 221.734375 144.101562 221.25 147 C 221.019531 148.625 220.792969 150.253906 220.574219 151.882812 L 220.191406 154.6875 L 219.410156 160.449219 C 218.339844 168.300781 217.117188 176.113281 215.578125 183.890625 C 215.390625 184.84375 215.203125 185.800781 215.011719 186.78125 L 214.5 189 L 213.75 189.75 C 211.988281 189.925781 210.21875 190.058594 208.453125 190.171875 L 205.519531 190.363281 L 203.25 190.5 C 203.726562 184.34375 204.492188 178.238281 205.285156 172.121094 C 206.066406 166.117188 206.796875 160.105469 207.523438 154.097656 C 207.726562 152.425781 207.933594 150.757812 208.144531 149.089844 C 212.621094 112.394531 210 75.070312 206.1875 38.429688 C 205.617188 32.835938 205.410156 27.375 205.5 21.75 "/><path style=" stroke:none;fill-rule:nonzero;fill:#132641;fill-opacity:1;" d="M 206.25 7.5 C 204 9 204 9 202.5625 9.179688 L 200.921875 9.171875 L 199.058594 9.171875 L 197.054688 9.144531 L 194.996094 9.140625 C 192.824219 9.132812 190.65625 9.113281 188.484375 9.09375 C 187.011719 9.085938 185.542969 9.078125 184.070312 9.074219 C 180.464844 9.054688 176.855469 9.03125 173.25 9 L 173.25 10.5 L 171.230469 10.722656 C 162.800781 11.710938 154.441406 13.015625 146.101562 14.601562 C 144.789062 14.851562 143.476562 15.089844 142.164062 15.320312 C 122.894531 18.777344 104.265625 29.421875 87.476562 39.140625 C 86.25 39.75 86.25 39.75 84.75 39.75 L 84.75 41.25 L 82.59375 41.859375 L 80.25 42.75 L 78.75 45 L 76.5 45 C 75.363281 46.226562 75.363281 46.226562 74.34375 47.8125 C 72.550781 50.34375 70.753906 52.140625 68.25 54 L 67.5 55.5 L 69.28125 54 L 71.25 52.5 L 72.75 52.5 L 73.5 51 C 74.667969 50.199219 74.667969 50.199219 76.078125 49.40625 L 77.480469 48.605469 C 78.75 48 78.75 48 80.25 48 L 80.25 46.5 C 81.984375 44.90625 81.984375 44.90625 84 43.5 L 86.25 43.5 L 86.25 42 C 89.808594 39.933594 93.398438 37.980469 97.078125 36.140625 L 98.640625 35.359375 C 102.769531 33.3125 106.960938 31.445312 111.199219 29.632812 C 114.28125 28.304688 117.308594 26.863281 120.28125 25.3125 C 123.582031 23.621094 126.796875 22.414062 130.382812 21.480469 C 132.019531 21.046875 132.019531 21.046875 133.5 20.234375 C 135.160156 19.421875 136.554688 19.132812 138.375 18.84375 C 141.121094 18.382812 143.851562 17.882812 146.574219 17.292969 C 155.140625 15.449219 163.597656 14.3125 172.332031 13.632812 C 173.71875 13.523438 175.105469 13.386719 176.488281 13.246094 C 191.019531 11.765625 208.921875 11.441406 222.75 16.5 L 222.75 18 C 220.9375 17.894531 219.125 17.785156 217.3125 17.671875 L 215.761719 17.582031 C 211.8125 17.332031 211.8125 17.332031 210.105469 16.878906 C 197.832031 13.984375 183.191406 15.671875 170.78125 17.035156 C 168.835938 17.242188 166.890625 17.40625 164.941406 17.554688 C 157.242188 18.179688 150.175781 19.695312 142.796875 21.960938 C 140.871094 22.539062 138.9375 23.078125 136.996094 23.613281 C 124.296875 26.960938 124.296875 26.960938 112.453125 32.484375 C 110.25 33.75 110.25 33.75 107.25 33.75 L 107.25 35.25 C 106.457031 35.542969 106.457031 35.542969 105.648438 35.84375 C 103.332031 36.820312 101.253906 37.996094 99.09375 39.28125 C 96.726562 40.683594 94.363281 42.074219 91.953125 43.398438 C 88.367188 45.441406 85.152344 47.972656 81.875 50.464844 C 80.597656 51.414062 79.304688 52.339844 78 53.25 L 76.5 53.25 L 76.5 54.75 C 75.445312 55.6875 74.339844 56.566406 73.21875 57.421875 C 61.933594 66.253906 52.023438 76.253906 43.5 87.75 L 42.535156 89.03125 C 32.519531 102.375 24.648438 117.078125 18.800781 132.710938 L 18 134.25 L 15.75 135 C 15.574219 131.617188 16.019531 129.324219 17.390625 126.234375 L 18.441406 123.84375 L 19.5 121.5 L 20.347656 119.53125 C 24.304688 110.484375 29.019531 101.816406 34.359375 93.515625 L 35.394531 91.898438 C 37.152344 89.222656 38.933594 86.980469 41.25 84.75 C 42.039062 83.269531 42.789062 81.769531 43.5 80.25 C 45 78 45 78 46.734375 77.015625 C 49.308594 75.398438 50.683594 73.6875 52.5 71.25 L 52.5 69.75 L 54.328125 68.71875 L 56.25 67.5 L 56.625 65.953125 L 57 64.5 C 58.921875 63.5625 58.921875 63.5625 60.75 63 L 60.75 60.75 C 59.125 61.460938 59.125 61.460938 57.75 63.046875 L 56.25 64.5 L 54.75 64.5 L 54.207031 65.734375 C 53.003906 67.949219 51.519531 69.769531 49.921875 71.71875 L 48.144531 73.902344 C 46.5 75.75 46.5 75.75 44.25 77.25 L 42.75 74.25 C 43.710938 72.96875 44.710938 71.71875 45.75 70.5 L 47.25 70.5 L 47.835938 69.179688 C 48.832031 67.351562 49.929688 66.128906 51.394531 64.65625 L 52.996094 63.046875 L 54.703125 61.359375 L 56.457031 59.621094 C 60.699219 55.453125 65 51.582031 69.75 48 L 70.972656 47.058594 C 98.496094 25.898438 130.601562 12.640625 164.984375 7.945312 C 178.539062 6.308594 192.6875 5.730469 206.25 7.5 "/><path style=" stroke:none;fill-rule:nonzero;fill:#152742;fill-opacity:1;" d="M 193.5 222.75 C 196.808594 222.710938 200.117188 222.683594 203.425781 222.667969 C 204.546875 222.660156 205.671875 222.648438 206.792969 222.636719 C 208.417969 222.621094 210.039062 222.609375 211.664062 222.605469 L 214.617188 222.578125 C 219.457031 222.863281 223.792969 224.015625 228 226.5 C 229.734375 227.859375 229.734375 227.859375 231 229.5 C 231.703125 231.65625 231.703125 231.65625 231.75 234 C 230.882812 236.214844 229.933594 237.945312 228.46875 239.8125 C 226.921875 241.003906 225.332031 241.605469 223.5 242.25 L 223.5 244.5 C 224.558594 246.144531 225.667969 247.753906 226.828125 249.328125 C 230.628906 254.503906 230.628906 254.503906 231 257.25 C 226.457031 257.910156 226.457031 257.910156 225 258 L 223.5 257.25 L 222.609375 255.421875 C 221.039062 252.335938 219.109375 249.667969 217.070312 246.878906 L 216 245.25 L 216 243.75 L 200.25 244.5 L 199.5 257.25 L 194.25 258 L 193.5 257.25 C 193.433594 256.167969 193.40625 255.082031 193.414062 253.996094 L 193.414062 251.90625 L 193.425781 249.628906 L 193.429688 247.3125 C 193.433594 244.859375 193.445312 242.40625 193.453125 239.953125 C 193.457031 238.292969 193.460938 236.636719 193.464844 234.976562 C 193.472656 230.902344 193.484375 226.824219 193.5 222.75 "/><path style=" stroke:none;fill-rule:nonzero;fill:#1b2839;fill-opacity:1;" d="M 258.84375 222.703125 L 260.914062 222.722656 L 262.5 222.75 C 265.0625 227.644531 267.335938 232.65625 269.578125 237.703125 C 271.730469 242.546875 273.949219 247.265625 276.605469 251.855469 C 277.558594 253.609375 278.292969 255.386719 279 257.25 L 278.25 258 C 275.878906 258.039062 274.417969 258.0625 272.25 257.25 C 271.003906 255.859375 270.1875 254.484375 269.328125 252.828125 C 268.40625 251.074219 267.605469 249.707031 266.25 248.25 C 263.199219 247.554688 260.089844 247.695312 256.96875 247.6875 L 254.386719 247.578125 C 251.941406 247.558594 249.863281 247.625 247.5 248.25 C 245.609375 250.015625 244.691406 251.867188 243.75 254.25 C 242.625 256.5 242.625 256.5 241.5 258 C 239.484375 258.234375 239.484375 258.234375 237.75 258 L 237 255.75 C 237.910156 253.820312 238.894531 251.929688 239.953125 250.078125 C 242.796875 244.917969 245.355469 239.617188 247.628906 234.179688 C 249.238281 230.417969 251.042969 226.792969 253.5 223.5 C 255.394531 222.554688 256.734375 222.675781 258.84375 222.703125 "/><path style=" stroke:none;fill-rule:nonzero;fill:#1a2739;fill-opacity:1;" d="M 112.5 282 C 115.59375 281.945312 118.6875 281.902344 121.785156 281.875 C 122.832031 281.863281 123.882812 281.851562 124.933594 281.832031 C 135.914062 281.628906 135.914062 281.628906 141 284.25 C 142.808594 285.679688 143.519531 286.6875 144.75 288.75 C 144.84375 291.46875 144.84375 291.46875 144 294 C 142.039062 296.203125 139.949219 297.207031 137.230469 298.199219 C 133.308594 299.472656 129.664062 299.507812 125.578125 299.390625 L 123.503906 299.359375 C 121.835938 299.332031 120.167969 299.296875 118.5 299.25 L 118.5 311.25 L 112.5 311.25 L 111.75 310.5 C 111.675781 308.707031 111.644531 306.9375 111.648438 305.144531 L 111.648438 303.511719 C 111.648438 302.363281 111.648438 301.21875 111.652344 300.074219 C 111.65625 298.332031 111.652344 296.585938 111.648438 294.839844 C 111.648438 293.730469 111.648438 292.617188 111.648438 291.503906 L 111.644531 289.929688 C 111.660156 287.191406 111.851562 284.660156 112.5 282 "/><path style=" stroke:none;fill-rule:nonzero;fill:#fdfefe;fill-opacity:1;" d="M 175.5 285 C 178.078125 285.984375 178.078125 285.984375 180 287.25 C 181.613281 289.398438 182.226562 290.820312 182.574219 293.503906 C 182.582031 300.605469 182.582031 300.605469 181.652344 303.105469 C 180.890625 304.265625 180.890625 304.265625 179.25 306 L 178.3125 307.3125 C 176.085938 308.902344 173.667969 309.433594 171 309.75 C 167.617188 309.664062 164.464844 309.324219 161.25 308.25 L 161.25 306.75 L 159.855469 306.171875 C 158.25 305.25 158.25 305.25 157.300781 303.976562 C 156.039062 301.429688 155.273438 299.429688 154.921875 296.578125 C 155.304688 293.5625 156.039062 291.417969 157.5 288.75 C 159.957031 286.152344 162.773438 284.839844 166.148438 283.804688 C 169.453125 283.261719 172.351562 283.996094 175.5 285 M 219.75 284.25 C 222.746094 285.230469 225.042969 286.496094 227.203125 288.796875 C 229.078125 292.21875 228.996094 295.472656 228.964844 299.285156 C 228.75 301.5 228.75 301.5 227.390625 304.171875 L 225.75 306 L 224.8125 307.3125 C 222.582031 308.90625 220.171875 309.417969 217.5 309.75 C 213.703125 309.808594 210.800781 309.421875 207.421875 307.640625 C 205.695312 306.167969 204.429688 304.925781 203.25 303 C 202.164062 299.746094 202.203125 296.65625 202.5 293.25 C 203.421875 290.757812 204.453125 289.117188 206.109375 287.0625 C 210.078125 283.890625 214.859375 283.632812 219.75 284.25 "/><path style=" stroke:none;fill-rule:nonzero;fill:#1b2839;fill-opacity:1;" d="M 108.75 222.75 L 125.15625 222.703125 L 130.335938 222.683594 L 134.386719 222.675781 L 136.519531 222.664062 L 138.550781 222.664062 L 140.316406 222.660156 C 141.75 222.75 141.75 222.75 143.25 223.5 L 142.5 225.75 C 140.199219 226.898438 137.796875 226.589844 135.273438 226.574219 L 133.566406 226.570312 C 131.761719 226.566406 129.960938 226.554688 128.15625 226.546875 C 126.933594 226.542969 125.714844 226.539062 124.492188 226.535156 C 121.492188 226.527344 118.496094 226.515625 115.5 226.5 L 115.5 238.5 L 137.25 239.25 L 136.5 242.25 L 115.5 242.25 L 115.5 254.25 L 143.25 254.25 L 143.25 257.25 L 108.75 257.25 Z M 108.75 222.75 "/><path style=" stroke:none;fill-rule:nonzero;fill:#142742;fill-opacity:1;" d="M 228.234375 283.828125 L 230.25 285 L 231 287.25 L 232.5 287.25 C 234.21875 290.132812 235.714844 292.84375 235.875 296.25 C 235.703125 299.085938 234.875 301.363281 233.496094 303.835938 C 231.1875 307.117188 228.410156 309.152344 224.871094 310.980469 C 221.691406 312.285156 218.695312 312.359375 215.296875 312.328125 L 213.570312 312.375 C 209.800781 312.371094 207.074219 311.652344 203.78125 309.8125 C 201.171875 308.15625 199.15625 306.171875 197.25 303.75 C 196.058594 301.265625 195.765625 299.40625 195.515625 296.671875 C 195.789062 293.558594 196.523438 291.5 198 288.75 C 200.722656 285.585938 203.773438 282.902344 207.746094 281.453125 C 214.886719 279.546875 221.585938 280.941406 228.234375 283.828125 M 207 286.5 C 204.886719 288.511719 203.433594 290.449219 202.5 293.25 C 202.183594 296.800781 202.203125 299.902344 203.390625 303.28125 C 205.359375 306.132812 207.386719 307.695312 210.46875 309.234375 C 214.160156 309.984375 217.558594 309.683594 221.25 309 C 223.792969 307.917969 224.863281 306.90625 226.6875 304.828125 C 227.996094 303.109375 227.996094 303.109375 228.75 301.5 C 229.0625 297.492188 229.140625 293.71875 227.90625 289.875 C 226.203125 287.601562 224.46875 286.386719 222 285 C 216.890625 283.296875 211.644531 283.765625 207 286.5 M 179.25 282 L 179.25 283.5 L 182.25 283.5 L 182.25 285 L 183.5625 285.515625 C 185.738281 286.785156 186.847656 288.167969 188.25 290.25 C 188.8125 291.984375 188.8125 291.984375 189 294 L 189.328125 296.8125 C 189.300781 298.785156 189.019531 299.964844 188.152344 301.753906 C 185.878906 305.320312 183.507812 308.136719 180 310.5 C 176.242188 311.804688 172.75 312.265625 168.796875 312.234375 L 167.199219 312.222656 C 163.152344 312.132812 160.292969 311.6875 156.75 309.75 C 154.6875 307.96875 154.6875 307.96875 153 306 L 151.3125 304.3125 C 149.773438 301.894531 149.363281 300.136719 149.183594 297.296875 C 149.300781 294.125 149.941406 291.523438 151.5 288.75 C 154.082031 285.691406 156.957031 283.546875 160.6875 282.09375 C 167.296875 280.109375 172.546875 280.488281 179.25 282 M 159.875 286.578125 C 157.90625 288.058594 156.78125 289.4375 155.71875 291.65625 C 155.179688 294.363281 154.964844 296.492188 155.25 299.25 C 156.011719 301.414062 156.875 303.40625 158.25 305.25 C 159.789062 306.179688 159.789062 306.179688 161.25 306.75 L 161.25 308.25 C 165.96875 309.734375 169.882812 310.019531 174.75 309 C 177.253906 307.910156 178.382812 306.882812 180.1875 304.828125 C 181.496094 303.109375 181.496094 303.109375 182.25 301.5 C 182.363281 299.800781 182.414062 298.09375 182.4375 296.390625 L 182.496094 293.609375 C 182.394531 291.011719 182.394531 291.011719 181.285156 288.894531 C 179.605469 286.746094 178.078125 285.9375 175.628906 284.84375 C 169.933594 282.765625 165.085938 283.4375 159.875 286.578125 "/><path style=" stroke:none;fill-rule:nonzero;fill:#0e1525;fill-opacity:1;" d="M 297.75 280.5 C 301.328125 281.582031 304.78125 282.851562 308.25 284.25 L 308.25 285.75 L 310.5 286.5 L 309.75 288.75 C 308.15625 288.9375 308.15625 288.9375 306 288.75 C 304.464844 287.800781 302.964844 286.800781 301.5 285.75 C 298.808594 284.851562 296.558594 284.847656 293.71875 284.8125 L 290.75 284.753906 C 287.992188 284.828125 287.992188 284.828125 285.765625 286.136719 L 284.25 287.25 L 285 292.5 L 286.902344 292.75 C 305.105469 295.226562 305.105469 295.226562 310.03125 297.515625 C 312 299.25 312 299.25 312.578125 300.644531 C 312.90625 302.289062 312.96875 303.585938 312.75 305.25 C 311.636719 307.378906 310.53125 308.472656 308.554688 309.808594 C 304.808594 311.90625 301.652344 312.371094 297.382812 312.375 L 295.125 312.328125 L 292.867188 312.34375 C 288.222656 312.304688 284.71875 311.710938 280.5 309.75 C 278.667969 308.628906 277.542969 307.542969 276 306 L 276 303.75 C 278.0625 303.5625 278.0625 303.5625 280.5 303.75 C 282.046875 305.15625 282.046875 305.15625 283.5 306.75 C 287.449219 308.726562 291.6875 309.214844 296.078125 309.171875 C 299.246094 308.84375 302.277344 307.867188 305.25 306.75 L 306 306 C 306.03125 304.5 306.03125 303 306 301.5 C 303.554688 300.113281 301.277344 299.566406 298.519531 299.058594 L 295.914062 298.570312 L 293.203125 298.078125 C 291.429688 297.75 289.652344 297.421875 287.878906 297.089844 L 285.496094 296.65625 C 283.5 296.25 283.5 296.25 281.25 295.5 L 281.25 294 L 278.25 292.5 C 278.1875 291.421875 278.144531 290.34375 278.109375 289.265625 L 278.03125 287.445312 C 278.25 285.75 278.25 285.75 279.101562 284.507812 C 284.058594 280.9375 291.757812 279.449219 297.75 280.5 "/><path style=" stroke:none;fill-rule:nonzero;fill:#16355c;fill-opacity:1;" d="M 153.75 222.75 C 154.765625 222.683594 155.777344 222.65625 156.796875 222.664062 L 158.753906 222.664062 L 160.878906 222.675781 L 163.042969 222.679688 C 165.335938 222.683594 167.628906 222.695312 169.921875 222.703125 C 171.472656 222.707031 173.023438 222.710938 174.574219 222.714844 C 178.382812 222.722656 182.191406 222.734375 186 222.75 L 185.25 226.5 L 159.75 226.5 L 159.75 238.5 L 180.75 238.5 L 181.5 241.5 L 159.75 241.5 C 159.78125 246.648438 159.78125 246.648438 159.816406 251.800781 L 159.824219 253.730469 L 159.835938 255.71875 L 159.75 257.25 L 159 258 C 156.796875 258.140625 156.796875 258.140625 154.5 258 L 153 256.5 C 152.816406 255.070312 152.816406 255.070312 152.816406 253.3125 L 152.808594 251.316406 L 152.828125 249.160156 L 152.828125 246.953125 C 152.832031 245.414062 152.835938 243.871094 152.84375 242.328125 C 152.859375 239.960938 152.859375 237.589844 152.859375 235.222656 L 152.875 230.738281 L 152.875 228.578125 L 152.890625 226.589844 L 152.898438 224.832031 L 153 223.5 Z M 153.75 222.75 "/><path style=" stroke:none;fill-rule:nonzero;fill:#15345b;fill-opacity:1;" d="M 199.5 166.5 L 201 166.5 C 200.894531 168.421875 200.785156 170.34375 200.671875 172.265625 L 200.582031 173.90625 C 200.414062 176.757812 200.125 179.457031 199.5 182.25 C 199.230469 183.828125 198.964844 185.40625 198.703125 186.984375 L 198.300781 189.414062 L 198 191.25 C 195.71875 191.3125 193.4375 191.355469 191.15625 191.390625 L 189.210938 191.449219 C 186.09375 191.484375 184.011719 191.359375 181.082031 190.164062 C 179.25 189 179.25 189 178.5 188.25 C 178.410156 186.101562 178.5 184.972656 179.25 183 C 184.078125 176.273438 192.496094 170.738281 199.5 166.5 "/><path style=" stroke:none;fill-rule:nonzero;fill:#fdfefe;fill-opacity:1;" d="M 200.25 226.5 C 203.421875 226.457031 206.59375 226.429688 209.765625 226.40625 L 212.488281 226.367188 L 215.117188 226.355469 L 217.535156 226.328125 C 219.835938 226.507812 221.441406 226.972656 223.5 228 C 224.53125 229.3125 224.53125 229.3125 225 231 C 224.953125 233.203125 224.953125 233.203125 224.25 235.5 C 222.609375 237.394531 221.25 238.875 219 240 C 217.585938 240.058594 216.167969 240.085938 214.753906 240.074219 L 212.203125 240.066406 L 209.53125 240.046875 L 206.839844 240.035156 C 204.644531 240.027344 202.445312 240.015625 200.25 240 C 199.5 238.5 199.5 238.5 199.589844 235.730469 C 199.664062 234.621094 199.746094 233.511719 199.828125 232.40625 L 199.945312 230.691406 C 200.046875 229.292969 200.144531 227.898438 200.25 226.5 "/><path style=" stroke:none;fill-rule:nonzero;fill:#1a293d;fill-opacity:1;" d="M 90 222.75 C 91.75 222.71875 93.5 222.71875 95.25 222.75 C 96.375 225 96.136719 227.320312 96.152344 229.789062 L 96.164062 231.460938 C 96.171875 232.628906 96.175781 233.800781 96.179688 234.96875 C 96.1875 236.746094 96.210938 238.519531 96.234375 240.296875 C 96.238281 241.433594 96.242188 242.574219 96.246094 243.710938 L 96.273438 245.304688 C 96.257812 249.128906 95.484375 251.664062 93.75 255 C 91.371094 256.972656 88.742188 257.8125 85.734375 258.488281 C 81.398438 259.140625 77.21875 259.148438 72.984375 258 L 71.25 257.25 L 72 255 L 73.949219 255.050781 C 80.65625 255.289062 80.65625 255.289062 87 253.5 C 88.746094 250.359375 88.742188 247.175781 88.785156 243.667969 L 88.824219 241.921875 C 88.863281 240.09375 88.894531 238.265625 88.921875 236.4375 C 88.953125 234.597656 88.988281 232.757812 89.027344 230.917969 C 89.054688 229.777344 89.074219 228.632812 89.089844 227.492188 C 89.117188 226.160156 89.179688 224.828125 89.25 223.5 Z M 90 222.75 "/><path style=" stroke:none;fill-rule:nonzero;fill:#1c2939;fill-opacity:1;" d="M 244.5 282 L 250.5 282 L 250.5 308.25 L 272.25 308.25 L 273 311.25 L 244.5 312 Z M 244.5 282 "/><path style=" stroke:none;fill-rule:nonzero;fill:#1b2839;fill-opacity:1;" d="M 225 283.5 C 227.15625 283.6875 227.15625 283.6875 229.5 284.25 C 230.53125 285.796875 230.53125 285.796875 231 287.25 L 232.5 287.25 C 234.21875 290.132812 235.714844 292.84375 235.875 296.25 C 235.703125 299.085938 234.875 301.363281 233.496094 303.835938 C 231.1875 307.113281 228.410156 309.148438 224.878906 310.984375 C 221.667969 312.300781 218.632812 312.332031 215.203125 312.28125 L 213.4375 312.308594 C 210.601562 312.292969 208.640625 312.054688 205.964844 311 C 203.355469 309.339844 202.058594 307.75 200.25 305.25 L 200.25 303.75 L 201.75 303.75 L 202.5 305.25 C 203.984375 305.792969 205.488281 306.28125 207 306.75 L 208.34375 307.371094 C 211.433594 308.769531 213.863281 309.140625 217.265625 308.90625 C 219.515625 308.609375 221.289062 308.234375 223.40625 307.40625 C 225.652344 305.425781 227.367188 303.417969 228.75 300.75 C 229.71875 297.617188 229.636719 294.753906 228.984375 291.5625 C 227.996094 288.746094 227.160156 287.695312 225 285.75 Z M 225 283.5 "/><path style=" stroke:none;fill-rule:nonzero;fill:#fdfefe;fill-opacity:1;" d="M 119.25 285 C 121.433594 284.882812 123.582031 284.824219 125.765625 284.8125 L 127.59375 284.765625 C 130.570312 284.746094 132.566406 284.925781 135.371094 286.046875 C 137.25 287.25 137.25 287.25 138.328125 288.65625 C 138.75 290.25 138.75 290.25 138.75 292.171875 L 138 294 C 135.957031 295.386719 134.195312 296.179688 131.726562 296.429688 C 129.71875 296.472656 127.726562 296.445312 125.71875 296.390625 L 123.613281 296.359375 C 121.90625 296.332031 120.203125 296.296875 118.5 296.25 C 118.480469 294.515625 118.464844 292.78125 118.453125 291.046875 L 118.425781 288.121094 L 118.5 285.75 Z M 119.25 285 "/><path style=" stroke:none;fill-rule:nonzero;fill:#1b2839;fill-opacity:1;" d="M 224.25 234.75 L 225 236.25 C 224.4375 237.796875 224.4375 237.796875 223.5 239.25 L 221.25 240 L 224.25 241.5 L 222.75 243 L 223.984375 244.835938 L 225.609375 247.265625 L 227.21875 249.664062 C 229.84375 253.664062 229.84375 253.664062 231 255.75 L 231 257.25 C 226.457031 257.910156 226.457031 257.910156 225 258 L 223.5 257.25 L 222.609375 255.421875 C 221.039062 252.335938 219.109375 249.667969 217.070312 246.878906 L 216 245.25 L 216 243.75 L 200.25 243.75 L 198.75 238.5 L 200.25 238.5 L 200.25 240 C 203.296875 239.917969 206.34375 239.820312 209.390625 239.71875 C 210.253906 239.695312 211.117188 239.671875 212.003906 239.648438 L 214.53125 239.558594 L 216.851562 239.488281 C 219.085938 239.238281 220.742188 238.753906 222.75 237.75 C 223.757812 236.238281 223.757812 236.238281 224.25 234.75 "/><path style=" stroke:none;fill-rule:nonzero;fill:#121e34;fill-opacity:1;" d="M 196.5 222.75 C 199.875 222.707031 203.25 222.679688 206.625 222.65625 C 207.574219 222.644531 208.527344 222.628906 209.507812 222.617188 C 215.523438 222.585938 220.363281 222.921875 225.9375 225.28125 C 228.058594 226.535156 229.496094 227.550781 231 229.5 C 231.703125 231.65625 231.703125 231.65625 231.75 234 C 230.894531 236.179688 229.960938 237.902344 228.535156 239.746094 L 227.25 240.75 C 225.390625 240.96875 225.390625 240.96875 223.359375 240.890625 L 221.3125 240.828125 L 219.75 240.75 C 221.25 239.25 221.25 239.25 223.5 238.5 C 224.117188 235.070312 224.59375 232.109375 223.5 228.75 C 219.949219 226.613281 215.707031 226.941406 211.6875 226.828125 C 210.253906 226.785156 208.820312 226.734375 207.386719 226.683594 L 205.472656 226.628906 L 204 226.5 L 203.25 225.75 C 202 225.71875 200.75 225.71875 199.5 225.75 L 197.25 225.75 Z M 196.5 222.75 "/><path style=" stroke:none;fill-rule:nonzero;fill:#142742;fill-opacity:1;" d="M 374.25 218.25 L 375 218.25 C 376.484375 232.867188 371.140625 247.058594 365.25 260.25 C 364.242188 262.394531 363.195312 264.519531 362.109375 266.625 L 361.332031 268.160156 C 360.640625 269.523438 359.945312 270.886719 359.25 272.25 L 358.421875 274.066406 L 357.75 275.25 C 356.15625 275.8125 356.15625 275.8125 354.75 276 C 355.183594 273.402344 355.84375 271.289062 357.03125 268.941406 L 357.964844 267.046875 L 358.96875 265.03125 C 366.191406 250.105469 371.101562 234.550781 374.25 218.25 "/><path style=" stroke:none;fill-rule:nonzero;fill:#132641;fill-opacity:1;" d="M 180 283.5 L 182.25 283.5 L 182.25 285 L 183.5625 285.515625 C 185.738281 286.785156 186.847656 288.167969 188.25 290.25 C 188.8125 291.984375 188.8125 291.984375 189 294 L 189.328125 296.8125 C 189.300781 298.785156 189.019531 299.964844 188.152344 301.753906 C 185.898438 305.296875 183.5 308.164062 180 310.5 L 177.75 309.75 L 177 307.5 C 178.199219 305.957031 179.449219 304.457031 180.75 303 C 181.859375 300.78125 181.628906 298.761719 181.640625 296.296875 L 181.671875 293.464844 C 181.695312 290.894531 181.695312 290.894531 180 288.75 C 179.484375 286.40625 179.484375 286.40625 179.25 284.25 Z M 180 283.5 "/><path style=" stroke:none;fill-rule:nonzero;fill:#fdfefe;fill-opacity:1;" d="M 256.5 228 L 258 228 C 258.847656 229.761719 259.691406 231.53125 260.53125 233.296875 L 261.25 234.789062 L 261.953125 236.277344 L 262.597656 237.621094 C 263.492188 239.851562 264.089844 242.191406 264.75 244.5 L 249.75 244.5 C 250.59375 239.433594 250.59375 239.433594 251.695312 237.125 L 252.394531 235.640625 L 253.125 234.140625 L 253.855469 232.59375 C 255.628906 228.871094 255.628906 228.871094 256.5 228 "/><path style=" stroke:none;fill-rule:nonzero;fill:#131f2e;fill-opacity:1;" d="M 157.5 237 L 159.75 237.75 C 161.351562 237.863281 162.957031 237.9375 164.5625 237.988281 L 167.414062 238.082031 L 170.390625 238.171875 L 173.394531 238.269531 C 175.847656 238.351562 178.296875 238.425781 180.75 238.5 L 181.5 241.5 L 159.75 241.5 C 159.78125 246.648438 159.78125 246.648438 159.816406 251.800781 L 159.824219 253.730469 L 159.835938 255.71875 L 159.75 257.25 L 159 258 C 157.5 258.03125 156 258.03125 154.5 258 L 154.5 255 L 157.5 253.5 L 157.078125 251.390625 C 156.511719 247.570312 157.050781 243.8125 157.5 240 L 156 239.25 L 157.5 239.25 Z M 157.5 237 "/><path style=" stroke:none;fill-rule:nonzero;fill:#142742;fill-opacity:1;" d="M 25.5 97.5 L 29.25 98.25 C 26.902344 103.101562 24.449219 107.8125 21.703125 112.453125 C 18.863281 117.28125 16.832031 122.199219 15 127.5 L 13.5 127.5 L 13.5 129 L 12 129 L 12.75 132.75 L 10.5 132 L 11.25 134.25 C 10.832031 135.945312 10.832031 135.945312 10.171875 137.765625 L 9.519531 139.601562 L 9 141 L 7.5 140.25 C 8.367188 135.070312 9.714844 130.378906 11.71875 125.53125 L 12.515625 123.574219 C 16.238281 114.578125 20.75 105.992188 25.5 97.5 "/><path style=" stroke:none;fill-rule:nonzero;fill:#121b2c;fill-opacity:1;" d="M 153.75 222.75 C 154.765625 222.683594 155.777344 222.65625 156.796875 222.664062 L 158.753906 222.664062 L 160.878906 222.675781 L 163.042969 222.679688 C 165.335938 222.683594 167.628906 222.695312 169.921875 222.703125 C 171.472656 222.707031 173.023438 222.710938 174.574219 222.714844 C 178.382812 222.722656 182.191406 222.734375 186 222.75 L 185.25 226.5 L 182.449219 226.488281 C 179.03125 226.476562 175.613281 226.464844 172.195312 226.457031 C 170.714844 226.453125 169.230469 226.449219 167.75 226.445312 C 165.625 226.433594 163.5 226.429688 161.371094 226.425781 L 159.359375 226.414062 C 156.078125 226.308594 156.078125 226.308594 153 227.25 C 152.96875 226 152.96875 224.75 153 223.5 Z M 153.75 222.75 "/><path style=" stroke:none;fill-rule:nonzero;fill:#142742;fill-opacity:1;" d="M 82.5 330.75 C 85.746094 331.929688 88.667969 333.558594 91.640625 335.296875 C 94.90625 337.21875 94.90625 337.21875 98.25 339 L 98.25 340.5 L 99.734375 340.683594 C 102.808594 341.453125 105.429688 342.84375 108.234375 344.296875 L 109.917969 345.152344 C 111.28125 345.847656 112.640625 346.546875 114 347.25 L 114 348.75 L 117.75 350.25 L 115.5 351.75 C 107.035156 349.453125 99.078125 344.140625 91.808594 339.386719 C 90.074219 338.25 90.074219 338.25 88.4375 337.492188 C 86.800781 336.648438 85.566406 335.625 84.1875 334.40625 L 82.792969 333.179688 L 81.75 332.25 Z M 82.5 330.75 "/><path style=" stroke:none;fill-rule:nonzero;fill:#0e1525;fill-opacity:1;" d="M 306.21875 283.429688 L 308.25 284.25 L 308.25 285.75 L 310.5 286.5 L 309.75 288.75 C 308.15625 288.9375 308.15625 288.9375 306 288.75 C 304.464844 287.800781 302.964844 286.800781 301.5 285.75 C 298.378906 284.710938 295.4375 284.832031 292.171875 284.8125 L 290.21875 284.765625 C 288.449219 284.753906 286.753906 284.773438 285 285 C 283.179688 286.023438 283.179688 286.023438 282 287.25 L 280.5 287.25 C 281.476562 285.070312 282.308594 283.421875 284.25 282 C 292.253906 279.332031 298.480469 280.460938 306.21875 283.429688 "/><path style=" stroke:none;fill-rule:nonzero;fill:#0d101b;fill-opacity:1;" d="M 119.59375 254.175781 L 121.644531 254.179688 C 123.800781 254.183594 125.953125 254.195312 128.109375 254.203125 C 129.574219 254.207031 131.039062 254.210938 132.503906 254.214844 C 136.085938 254.222656 139.667969 254.234375 143.25 254.25 L 143.25 257.25 L 108.75 257.25 L 108.75 255 C 112.359375 254.066406 115.890625 254.15625 119.59375 254.175781 "/><path style=" stroke:none;fill-rule:nonzero;fill:#0e1525;fill-opacity:1;" d="M 150.75 300 L 153.75 300 L 153.75 301.5 L 155.25 302.25 L 156.703125 304.40625 C 157.949219 305.90625 158.921875 306.710938 160.683594 307.574219 C 166.695312 309.492188 172.320312 308.941406 178.5 308.25 L 177.75 311.25 C 172.703125 312.863281 165.921875 312.59375 160.761719 311.628906 C 158.328125 310.800781 156.628906 309.644531 154.6875 307.96875 L 153 306 L 151.21875 304.03125 L 150 302.25 Z M 200.25 303.75 L 201.75 303.75 L 202.5 305.25 C 203.984375 305.792969 205.488281 306.28125 207 306.75 L 208.34375 307.371094 C 211.300781 308.710938 213.730469 309.171875 216.984375 309 C 221.570312 308.441406 225.4375 306.628906 229.5 304.5 L 228.703125 305.90625 C 228.472656 306.433594 228.238281 306.957031 228 307.5 L 228.75 309 C 224.777344 311.355469 221.484375 312.210938 216.917969 312.320312 L 215.109375 312.328125 L 213.355469 312.351562 C 210.554688 312.308594 208.609375 312.042969 205.972656 310.996094 C 203.351562 309.339844 202.058594 307.75 200.25 305.25 Z M 200.25 303.75 "/><path style=" stroke:none;fill-rule:nonzero;fill:#142742;fill-opacity:1;" d="M 150 364.5 L 151.359375 364.75 C 159.894531 366.320312 168.382812 367.789062 177.042969 368.484375 C 179.828125 368.730469 182.113281 368.976562 184.5 370.5 L 184.5 371.25 C 176.503906 371.65625 168.84375 371.011719 160.921875 369.84375 L 158.1875 369.449219 C 153.335938 368.699219 153.335938 368.699219 151.5 368.25 L 150 366.75 Z M 150 364.5 "/><path style=" stroke:none;fill-rule:nonzero;fill:#122f55;fill-opacity:1;" d="M 144 199.5 L 142.5 201.75 C 140.738281 202.171875 138.957031 202.46875 137.15625 202.640625 L 135.496094 202.824219 C 129.574219 203.402344 123.648438 203.351562 117.703125 203.261719 L 115.457031 203.230469 L 113.457031 203.1875 C 111.625 203.175781 111.625 203.175781 109.5 204 C 107.746094 203.792969 105.992188 203.546875 104.25 203.25 L 104.25 201 C 104.695312 201.007812 105.136719 201.015625 105.59375 201.023438 C 116.609375 201.191406 127.816406 201.289062 138.660156 199.054688 C 140.613281 198.679688 142.089844 199.007812 144 199.5 "/><path style=" stroke:none;fill-rule:nonzero;fill:#111d33;fill-opacity:1;" d="M 108.75 222.75 C 113.421875 222.730469 118.09375 222.71875 122.765625 222.707031 C 124.355469 222.703125 125.945312 222.699219 127.539062 222.695312 C 129.820312 222.683594 132.101562 222.679688 134.386719 222.675781 L 136.546875 222.664062 L 138.550781 222.664062 L 140.316406 222.660156 C 141.75 222.75 141.75 222.75 143.25 223.5 L 142.5 225.75 C 138.054688 225.769531 133.609375 225.78125 129.164062 225.792969 C 127.652344 225.796875 126.140625 225.800781 124.628906 225.804688 C 122.457031 225.816406 120.28125 225.820312 118.109375 225.824219 L 116.058594 225.835938 L 114.148438 225.835938 L 112.46875 225.839844 C 111 225.75 111 225.75 108.75 225 Z M 108.75 222.75 "/><path style=" stroke:none;fill-rule:nonzero;fill:#142742;fill-opacity:1;" d="M 255.75 351.75 L 255.75 353.25 C 254.597656 354.675781 253.628906 355.441406 251.960938 356.210938 C 248.546875 357.328125 245.855469 357.75 242.25 357.75 C 241.21875 358.0625 240.199219 358.402344 239.183594 358.773438 C 235.59375 360.007812 231.996094 360.871094 228.28125 361.640625 L 226.449219 362.042969 C 222.886719 362.792969 219.636719 363.140625 216 363 L 216 361.5 L 217.652344 361.171875 C 229.605469 358.761719 241.242188 355.976562 252.828125 352.160156 C 254.25 351.75 254.25 351.75 255.75 351.75 "/><path style=" stroke:none;fill-rule:nonzero;fill:#131e31;fill-opacity:1;" d="M 179.25 282 L 179.53125 283.40625 C 179.902344 285.144531 179.902344 285.144531 181.5 286.5 C 180.28125 287.015625 180.28125 287.015625 178.5 287.25 C 176.988281 286.523438 175.488281 285.773438 174 285 C 170.585938 283.867188 167.074219 282.929688 163.5 283.5 C 161.519531 284.527344 159.652344 285.660156 157.773438 286.867188 C 156.238281 287.847656 154.648438 288.722656 153 289.5 L 153 287.25 C 156.558594 283.691406 160.242188 282.152344 165.035156 280.824219 C 169.847656 279.757812 174.546875 280.941406 179.25 282 "/><path style=" stroke:none;fill-rule:nonzero;fill:#0e1525;fill-opacity:1;" d="M 256.136719 308.175781 L 258.980469 308.183594 L 261.9375 308.203125 L 264.929688 308.214844 C 267.371094 308.222656 269.808594 308.234375 272.25 308.25 L 273 311.25 C 269.714844 311.269531 266.433594 311.28125 263.148438 311.292969 C 262.03125 311.296875 260.914062 311.300781 259.796875 311.304688 C 258.191406 311.316406 256.585938 311.320312 254.984375 311.324219 L 252.054688 311.335938 C 249.75 311.25 249.75 311.25 248.25 310.5 L 248.25 309 C 250.90625 308.175781 253.367188 308.164062 256.136719 308.175781 "/><path style=" stroke:none;fill-rule:nonzero;fill:#142742;fill-opacity:1;" d="M 29.25 282 L 30 283.5 L 31.5 283.5 C 32.644531 285.738281 33.703125 287.863281 34.5 290.25 L 36 290.25 L 36.609375 291.609375 C 37.394531 293.242188 37.394531 293.242188 38.53125 294.28125 C 40.253906 296.003906 41.476562 297.933594 42.75 300 L 42.75 301.5 L 44.15625 302.0625 C 45.75 303 45.75 303 46.6875 304.59375 L 47.25 306 C 45.230469 305.503906 45.230469 305.503906 42.75 304.5 C 40.882812 302.675781 40.882812 302.675781 39.09375 300.421875 L 38.132812 299.214844 C 37.484375 298.390625 36.839844 297.558594 36.199219 296.726562 C 35.289062 295.558594 34.367188 294.402344 33.433594 293.257812 C 29.449219 288.15625 29.449219 288.15625 28.882812 285.570312 C 28.875 284.109375 28.875 284.109375 29.25 282 "/><path style=" stroke:none;fill-rule:nonzero;fill:#1b2f47;fill-opacity:1;" d="M 349.5 273 L 350.25 274.5 C 349.445312 276.078125 349.445312 276.078125 348.234375 277.96875 C 346.195312 281.238281 344.421875 284.527344 342.75 288 L 341.25 288 L 340.640625 289.828125 L 339.75 291.75 L 337.5 292.5 L 337.5 294 L 336 294 L 336.75 296.25 C 335.53125 298.265625 335.53125 298.265625 333.75 300 C 331.6875 300.234375 331.6875 300.234375 330 300 C 331.960938 296.476562 334.40625 293.414062 336.890625 290.25 C 340.578125 285.507812 343.878906 280.707031 346.882812 275.507812 C 347.25 274.925781 347.621094 274.347656 348 273.75 Z M 349.5 273 "/><path style=" stroke:none;fill-rule:nonzero;fill:#1c2f47;fill-opacity:1;" d="M 198.75 238.5 L 200.25 238.5 L 200.25 240 L 217.5 240 L 217.5 240.75 L 204 241.5 C 212.59375 240.90625 212.59375 240.90625 216 242.25 C 219.78125 245.316406 222.921875 249.855469 225 254.25 L 225 256.5 L 228 256.5 L 228 258 C 225.890625 257.90625 225.890625 257.90625 223.5 257.25 C 222.421875 255.421875 222.421875 255.421875 221.25 252.75 C 219.898438 250.761719 218.488281 248.820312 217.070312 246.878906 L 216 245.25 L 216 243.75 L 200.25 243.75 Z M 198.75 238.5 "/><path style=" stroke:none;fill-rule:nonzero;fill:#142742;fill-opacity:1;" d="M 189.890625 6.65625 L 192.414062 6.648438 C 197.089844 6.652344 201.613281 6.882812 206.25 7.5 C 204 9 204 9 202.5625 9.179688 L 200.921875 9.171875 L 199.058594 9.171875 L 197.054688 9.144531 L 194.996094 9.140625 C 192.824219 9.132812 190.65625 9.113281 188.484375 9.09375 C 187.011719 9.085938 185.542969 9.078125 184.070312 9.074219 C 180.464844 9.054688 176.855469 9.03125 173.25 9 L 173.25 10.5 L 167.25 10.5 L 168.75 8.25 C 175.339844 6.050781 183.015625 6.632812 189.890625 6.65625 "/><path style=" stroke:none;fill-rule:nonzero;fill:#0e1525;fill-opacity:1;" d="M 114.75 239.25 C 116.414062 239.183594 118.078125 239.167969 119.746094 239.175781 L 121.253906 239.179688 C 122.851562 239.183594 124.449219 239.195312 126.046875 239.203125 C 127.128906 239.207031 128.207031 239.210938 129.289062 239.214844 C 131.941406 239.222656 134.597656 239.234375 137.25 239.25 L 136.5 242.25 C 133.535156 242.304688 130.574219 242.347656 127.609375 242.375 C 126.105469 242.390625 124.601562 242.417969 123.097656 242.449219 L 120.238281 242.46875 L 117.597656 242.503906 L 115.5 242.25 L 114 240 Z M 114.75 239.25 "/><path style=" stroke:none;fill-rule:nonzero;fill:#0d101b;fill-opacity:1;" d="M 90.75 252.75 L 93 253.5 C 92.457031 254.917969 92.457031 254.917969 91.5 256.5 C 87.222656 258.742188 82.367188 259.058594 77.621094 258.929688 C 75.339844 258.710938 73.351562 258.160156 71.25 257.25 L 72 255 L 73.867188 255.050781 C 82.539062 255.238281 82.539062 255.238281 90.75 252.75 "/><path style=" stroke:none;fill-rule:nonzero;fill:#142742;fill-opacity:1;" d="M 334.5 75 C 336.230469 75.234375 336.230469 75.234375 338.25 75.75 C 342.289062 78.910156 345.171875 83.976562 348.140625 88.125 C 348.523438 88.660156 348.90625 89.191406 349.300781 89.742188 C 351.734375 93.199219 353.695312 96.679688 355.5 100.5 C 354.089844 100.238281 354.089844 100.238281 352.5 99.75 C 351.058594 97.925781 351.058594 97.925781 349.6875 95.671875 L 348.292969 93.425781 C 347.25 91.5 347.25 91.5 347.25 90 L 345.75 90 C 344.890625 88.792969 344.890625 88.792969 343.96875 87.1875 C 342.515625 84.769531 341.0625 82.9375 339 81 C 338.179688 80.085938 337.367188 79.164062 336.5625 78.234375 L 335.378906 76.867188 L 334.5 75.75 Z M 334.5 75 "/><path style=" stroke:none;fill-rule:nonzero;fill:#142740;fill-opacity:1;" d="M 271.5 247.5 C 273.140625 247.828125 273.140625 247.828125 275.25 249 C 276.792969 251.113281 278.082031 253.296875 279 255.75 L 278.25 258 C 276.058594 257.925781 274.324219 257.859375 272.25 257.25 C 270.148438 254.933594 269.363281 253.261719 268.6875 250.21875 L 268.5 248.25 L 270 248.25 L 270 249.75 L 271.5 249.75 Z M 271.5 247.5 "/><path style=" stroke:none;fill-rule:nonzero;fill:#142742;fill-opacity:1;" d="M 84 201 C 88.328125 201.277344 91.378906 201.945312 95.25 204 C 97.171875 204.640625 99.101562 205.207031 101.046875 205.765625 C 102.375 206.144531 103.691406 206.5625 105 207 L 103.5 208.5 C 98.824219 209.011719 94.617188 207.628906 90.382812 205.816406 C 87.988281 204.742188 85.613281 203.636719 83.25 202.5 Z M 84 201 "/><path style=" stroke:none;fill-rule:nonzero;fill:#223444;fill-opacity:1;" d="M 224.25 234.75 L 225 236.25 C 224.4375 237.796875 224.4375 237.796875 223.5 239.25 L 221.25 240 L 224.25 241.5 L 222.75 243 L 223.984375 244.808594 L 225.609375 247.21875 L 227.21875 249.589844 C 228.648438 251.839844 229.855469 254.097656 231 256.5 L 228.75 255.75 C 227.859375 253.828125 227.859375 253.828125 227.25 252 L 225.75 252 C 224.554688 250.605469 223.414062 249.167969 222.328125 247.6875 L 221.390625 246.460938 C 219.835938 244.371094 218.613281 242.613281 218.25 240 C 219.226562 239.21875 220.226562 238.46875 221.25 237.75 L 222.75 237.75 Z M 224.25 234.75 "/><path style=" stroke:none;fill-rule:nonzero;fill:#1f2f41;fill-opacity:1;" d="M 219 281.25 L 225 282 L 225.5625 284.015625 C 226.335938 286.53125 226.335938 286.53125 228.046875 288.1875 C 229.878906 290.789062 230.039062 292.832031 230.335938 295.949219 C 230.242188 297.921875 229.753906 299.066406 228.75 300.75 L 228.664062 299.105469 C 228.449219 295.90625 228.152344 292.992188 227.203125 289.921875 C 225.488281 287.65625 223.964844 286.707031 221.402344 285.554688 C 218.878906 284.707031 216.390625 284.527344 213.75 284.25 L 213 282.75 C 214.492188 282.457031 215.992188 282.210938 217.5 282 L 219 282.75 Z M 219 281.25 "/><path style=" stroke:none;fill-rule:nonzero;fill:#152337;fill-opacity:1;" d="M 225 230.25 L 228 231.75 L 228 234.75 L 231 234 C 229.828125 238.058594 229.828125 238.058594 228.5625 239.765625 L 227.25 240.75 C 225.390625 240.96875 225.390625 240.96875 223.359375 240.890625 L 221.3125 240.828125 L 219.75 240.75 C 221.25 239.25 221.25 239.25 223.5 238.5 Z M 225 230.25 "/><path style=" stroke:none;fill-rule:nonzero;fill:#142742;fill-opacity:1;" d="M 137.25 356.25 C 141.492188 356.703125 145.5 357.464844 149.625 358.546875 L 151.277344 358.96875 C 152.601562 359.3125 153.925781 359.652344 155.25 360 L 154.5 362.25 C 148.808594 361.882812 143.496094 360.75 138 359.25 Z M 137.25 356.25 "/><path style=" stroke:none;fill-rule:nonzero;fill:#142844;fill-opacity:1;" d="M 298.5 335.25 L 300 335.25 L 300.75 338.25 C 298.546875 339.613281 296.34375 340.972656 294.140625 342.328125 L 292.246094 343.5 L 290.421875 344.621094 L 288.746094 345.65625 C 287.25 346.5 287.25 346.5 285 347.25 L 285 344.25 L 287.25 343.5 C 290.023438 341.652344 292.644531 339.617188 295.277344 337.578125 C 296.332031 336.773438 297.414062 336.007812 298.5 335.25 "/><path style=" stroke:none;fill-rule:nonzero;fill:#142742;fill-opacity:1;" d="M 362.25 244.5 C 362.703125 245.734375 362.703125 245.734375 363 247.5 C 361.707031 253.230469 359.292969 258.972656 356.25 264 C 355.011719 265.332031 355.011719 265.332031 354 266.25 C 354.234375 260.335938 356.691406 255.757812 359.25 250.5 C 359.714844 249.441406 360.167969 248.378906 360.609375 247.3125 C 361.5 245.25 361.5 245.25 362.25 244.5 "/><path style=" stroke:none;fill-rule:nonzero;fill:#1e324a;fill-opacity:1;" d="M 212.25 283.5 L 212.25 285 L 209.8125 285.890625 C 207.707031 286.789062 206.859375 287.398438 205.21875 289.125 C 203.945312 291.082031 203.308594 292.597656 203.097656 294.925781 C 203.015625 299.242188 203.5 302.164062 205.5 306 C 204.140625 305.625 204.140625 305.625 202.5 304.5 C 201.292969 302.289062 200.65625 300.921875 200.25 298.5 C 200.457031 294.8125 201.257812 291.464844 202.640625 288.046875 C 205.308594 285.011719 208.144531 283.5 212.25 283.5 "/><path style=" stroke:none;fill-rule:nonzero;fill:#0e2348;fill-opacity:1;" d="M 204.75 180 C 205.226562 181.773438 205.585938 183.570312 205.828125 185.390625 L 206.25 187.5 L 207.75 188.25 C 209.269531 187.539062 210.769531 186.789062 212.25 186 L 214.5 185.25 C 214.53125 186.5 214.53125 187.75 214.5 189 L 213.75 189.75 C 211.988281 189.925781 210.21875 190.058594 208.453125 190.171875 L 205.519531 190.363281 L 203.25 190.5 C 203.355469 189.171875 203.464844 187.84375 203.578125 186.515625 C 203.636719 185.777344 203.699219 185.035156 203.761719 184.273438 C 204 182.25 204 182.25 204.75 180 "/><path style=" stroke:none;fill-rule:nonzero;fill:#142742;fill-opacity:1;" d="M 118.5 283.5 L 120 285 L 119.25 285.75 C 119.074219 287.511719 118.941406 289.28125 118.828125 291.046875 L 118.636719 293.980469 L 118.5 296.25 L 114.75 296.25 L 115.171875 294.46875 L 115.5 292.5 L 114.75 291 C 114.976562 289.746094 115.226562 288.496094 115.5 287.25 L 115.5 285 Z M 118.5 283.5 "/><path style=" stroke:none;fill-rule:nonzero;fill:#293e53;fill-opacity:1;" d="M 249.75 238.5 L 251.25 238.5 L 249.75 244.5 L 252 245.25 L 249.75 246 L 250.5 247.5 L 248.765625 248.015625 C 246.605469 248.867188 246.605469 248.867188 245.390625 250.96875 L 244.5 252.75 L 243 251.25 C 243.28125 248.90625 243.28125 248.90625 243.75 246.75 L 246 246 C 247.097656 244.261719 247.097656 244.261719 248.015625 242.203125 C 248.34375 241.511719 248.671875 240.824219 249.007812 240.113281 Z M 249.75 238.5 "/><path style=" stroke:none;fill-rule:nonzero;fill:#0b1e3f;fill-opacity:1;" d="M 199.5 166.5 L 201 166.5 L 200.25 177 L 198.75 177 L 197.25 171.75 L 195 172.5 L 193.5 171 C 194.464844 170.246094 195.433594 169.496094 196.40625 168.75 L 198.042969 167.484375 Z M 199.5 166.5 "/><path style=" stroke:none;fill-rule:nonzero;fill:#0d1423;fill-opacity:1;" d="M 276 303.75 C 278.0625 303.5625 278.0625 303.5625 280.5 303.75 C 282.140625 305.15625 282.140625 305.15625 283.5 306.75 L 285.75 308.25 L 283.5 310.5 C 280.511719 309.476562 278.304688 308.175781 276 306 Z M 276 303.75 "/><path style=" stroke:none;fill-rule:nonzero;fill:#b8cad4;fill-opacity:1;" d="M 159.75 236.25 L 180.75 236.25 L 180.75 238.5 L 159.75 238.5 Z M 159.75 236.25 "/><path style=" stroke:none;fill-rule:nonzero;fill:#142742;fill-opacity:1;" d="M 258 227.25 C 259.125 228.28125 259.125 228.28125 260.25 229.5 L 260.25 231 L 261.75 231 L 262.78125 233.109375 C 263.957031 235.527344 263.957031 235.527344 265.5 237.75 L 264 237.75 L 265.21875 239.4375 L 266.25 241.5 C 265.566406 243.128906 265.566406 243.128906 264.75 244.5 L 263.65625 241.980469 L 262.21875 238.6875 L 261.5 237.03125 L 260.796875 235.417969 L 260.152344 233.941406 C 259.691406 232.929688 259.199219 231.9375 258.667969 230.957031 C 258 229.5 258 229.5 258 227.25 M 334.5 198.75 L 336.09375 199.40625 C 338.230469 200.273438 338.230469 200.273438 340.40625 200.90625 C 343.179688 201.902344 345.476562 203.234375 348 204.75 L 347.25 207 C 343.785156 206.589844 341.265625 205.058594 338.390625 203.203125 L 337.03125 202.347656 C 335.9375 201.652344 334.839844 200.953125 333.75 200.25 Z M 334.5 198.75 "/><path style=" stroke:none;fill-rule:nonzero;fill:#1f324a;fill-opacity:1;" d="M 180 283.5 L 182.25 283.5 L 182.25 285 L 183.5625 285.515625 C 185.738281 286.785156 186.847656 288.167969 188.25 290.25 C 189.28125 293.429688 189.054688 296.691406 189 300 L 187.5 300 L 187.277344 298.355469 C 186.753906 294.964844 186.230469 292.191406 184.640625 289.125 C 182.976562 287.222656 181.5 286.125 179.25 285 Z M 180 283.5 "/><path style=" stroke:none;fill-rule:nonzero;fill:#142742;fill-opacity:1;" d="M 190.5 197.25 L 202.5 199.5 L 202.5 201 L 204 201.75 C 201.941406 202.292969 200.4375 202.53125 198.324219 202.1875 L 196.40625 201.609375 L 194.480469 201.0625 C 192.75 200.25 192.75 200.25 190.5 197.25 M 68.25 321 C 71.8125 321.65625 71.8125 321.65625 73.5 322.5 L 73.5 324 L 75.28125 324.5625 L 77.25 325.5 C 78.234375 327.09375 78.234375 327.09375 78.75 328.5 C 77.449219 329.054688 77.449219 329.054688 75.75 329.25 C 74.144531 328.0625 74.144531 328.0625 72.5625 326.390625 L 70.957031 324.734375 L 69.75 323.25 L 69.75 321.75 Z M 68.25 321 "/><path style=" stroke:none;fill-rule:nonzero;fill:#16355c;fill-opacity:1;" d="M 198.75 22.5 L 199.5 27 L 197.25 27 L 197.25 24.75 L 182.25 24 L 182.25 23.25 C 187.753906 22.371094 193.1875 22.429688 198.75 22.5 "/><path style=" stroke:none;fill-rule:nonzero;fill:#142742;fill-opacity:1;" d="M 280.5 283.5 L 282.75 284.25 L 281.203125 285.890625 L 279.75 288 C 279.449219 289.9375 279.449219 289.9375 280.5 291.75 C 282.144531 293.179688 283.894531 294.363281 285.75 295.5 L 283.5 296.25 L 281.25 295.5 L 281.25 294 L 278.25 292.5 C 278.1875 291.421875 278.144531 290.34375 278.109375 289.265625 L 278.03125 287.445312 L 278.25 285.75 C 279.382812 284.40625 279.382812 284.40625 280.5 283.5 "/><path style=" stroke:none;fill-rule:nonzero;fill:#1b2f47;fill-opacity:1;" d="M 333 90.75 C 336 92.25 336 92.25 337.769531 94.640625 C 338.375 95.589844 338.972656 96.542969 339.5625 97.5 L 340.496094 98.957031 C 341.28125 100.203125 342.019531 101.476562 342.75 102.75 L 342.75 104.25 L 340.5 103.5 C 339.609375 101.578125 339.609375 101.578125 339 99.75 L 337.5 99.75 Z M 333 90.75 "/><path style=" stroke:none;fill-rule:nonzero;fill:#142742;fill-opacity:1;" d="M 24.75 189 C 22.164062 190.726562 20.148438 191.105469 17.109375 191.71875 C 16.15625 191.914062 15.199219 192.109375 14.21875 192.3125 L 12 192.75 L 12.75 190.5 C 16.761719 188.332031 20.378906 187.976562 24.75 189 "/><path style=" stroke:none;fill-rule:nonzero;fill:#0b1e3f;fill-opacity:1;" d="M 45 80.25 L 45.75 81.75 C 45.15625 84.664062 44.625 86.566406 42.65625 88.828125 L 41.25 90 C 40.394531 88.695312 40.394531 88.695312 39.75 87 C 40.371094 85.421875 40.371094 85.421875 41.4375 83.859375 L 42.480469 82.28125 C 43.5 81 43.5 81 45 80.25 "/><path style=" stroke:none;fill-rule:nonzero;fill:#1c2f47;fill-opacity:1;" d="M 354 114.75 C 355.265625 115.207031 356.515625 115.707031 357.75 116.25 C 358.765625 118.28125 358.546875 120.007812 358.5 122.25 L 360.75 123 L 357.75 124.5 C 357.121094 123.15625 356.496094 121.8125 355.875 120.46875 L 354.820312 118.203125 C 354 116.25 354 116.25 354 114.75 "/><path style=" stroke:none;fill-rule:nonzero;fill:#111d33;fill-opacity:1;" d="M 322.5 187.5 L 323.25 189 L 310.5 192 L 310.5 189.75 C 318.28125 187.167969 318.28125 187.167969 322.5 187.5 "/><path style=" stroke:none;fill-rule:nonzero;fill:#233645;fill-opacity:1;" d="M 218.25 246.75 C 220.691406 249.121094 223.023438 251.472656 225 254.25 L 225 256.5 L 228 256.5 L 228 258 C 225.890625 257.90625 225.890625 257.90625 223.5 257.25 C 222.28125 255.1875 222.28125 255.1875 221.25 252.75 L 219.609375 250.734375 L 218.25 249 Z M 218.25 246.75 "/><path style=" stroke:none;fill-rule:nonzero;fill:#203b5c;fill-opacity:1;" d="M 248.25 195 C 250.175781 195.203125 250.175781 195.203125 252.421875 195.609375 C 253.164062 195.738281 253.910156 195.867188 254.675781 196 L 256.5 196.5 L 257.25 198 L 247.5 198 L 246.75 195.75 Z M 248.25 195 "/><path style=" stroke:none;fill-rule:nonzero;fill:#142d4e;fill-opacity:1;" d="M 25.5 97.5 L 29.25 98.25 C 28.640625 100.078125 28.640625 100.078125 27.75 102 L 25.5 102.75 L 24.75 104.25 L 23.25 104.25 L 22.5 105.75 C 22.957031 102.652344 24.027344 100.25 25.5 97.5 "/><path style=" stroke:none;fill-rule:nonzero;fill:#111d33;fill-opacity:1;" d="M 201 83.25 L 203.25 84 L 203.25 93 L 201 92.25 C 200.433594 89.476562 200.128906 87.460938 201 84.75 Z M 225 283.5 C 226.507812 283.695312 228.007812 283.953125 229.5 284.25 L 231 285.75 C 230.71875 287.34375 230.71875 287.34375 230.25 288.75 C 228.0625 287.945312 226.667969 287.417969 225 285.75 Z M 225 283.5 "/><path style=" stroke:none;fill-rule:nonzero;fill:#142741;fill-opacity:1;" d="M 265.5 244.5 C 267.28125 244.734375 267.28125 244.734375 269.25 245.25 L 270.75 247.5 L 267.75 247.5 L 267 249 L 261 246.75 L 261 246 L 265.5 245.25 Z M 265.5 244.5 "/><path style=" stroke:none;fill-rule:nonzero;fill:#142946;fill-opacity:1;" d="M 2.25 210.75 C 4.296875 214.40625 5.34375 218.140625 5.34375 222.328125 L 5.25 225 L 3.75 225 C 2.757812 220.175781 2.0625 215.675781 2.25 210.75 "/><path style=" stroke:none;fill-rule:nonzero;fill:#142742;fill-opacity:1;" d="M 358.5 189 L 361.5 189.75 L 360.75 195 L 357 194.25 C 357.425781 192.480469 357.925781 190.730469 358.5 189 "/><path style=" stroke:none;fill-rule:nonzero;fill:#1c2f47;fill-opacity:1;" d="M 285 284.25 L 287.25 284.25 L 287.25 285.75 L 284.25 287.25 L 285 292.5 L 282 291.75 L 281.25 287.25 C 282.984375 285.75 282.984375 285.75 285 284.25 "/><path style=" stroke:none;fill-rule:nonzero;fill:#22374b;fill-opacity:1;" d="M 258 222.75 L 262.5 222.75 L 266.25 230.25 L 264 230.25 C 263.039062 228.988281 263.039062 228.988281 262.125 227.34375 C 260.839844 225.046875 260.273438 224.265625 258 222.75 "/><path style=" stroke:none;fill-rule:nonzero;fill:#223444;fill-opacity:1;" d="M 91.5 228.75 C 92.660156 230.621094 93.011719 231.875 93.199219 234.097656 L 93.1875 236.671875 L 93.199219 239.253906 C 93 241.5 93 241.5 91.5 243.75 C 91.351562 241.390625 91.214844 239.03125 91.078125 236.671875 L 90.949219 234.632812 L 90.839844 232.691406 L 90.734375 230.894531 L 90.75 229.5 Z M 91.5 228.75 "/><path style=" stroke:none;fill-rule:nonzero;fill:#1b2839;fill-opacity:1;" d="M 305.25 296.25 C 306.503906 296.738281 307.753906 297.238281 309 297.75 L 310.6875 298.21875 L 312 299.25 C 312.496094 301.273438 312.613281 303.152344 312.75 305.25 L 311.25 304.5 L 310.949219 303.101562 C 310.617188 301.417969 310.617188 301.417969 309.277344 300.25 L 307.828125 299.109375 C 306.957031 298.417969 306.097656 297.71875 305.25 297 Z M 305.25 296.25 "/><path style=" stroke:none;fill-rule:nonzero;fill:#0b1e3f;fill-opacity:1;" d="M 213 185.25 L 214.5 185.25 C 214.53125 186.5 214.53125 187.75 214.5 189 L 213.75 189.75 C 212 189.78125 210.25 189.78125 208.5 189.75 L 207.75 188.25 L 209.953125 187.171875 C 212.105469 186.222656 212.105469 186.222656 213 185.25 "/><path style=" stroke:none;fill-rule:nonzero;fill:#142946;fill-opacity:1;" d="M 213.375 199.3125 L 216 199.5 L 217.5 201.75 L 215.25 202.5 L 213 201 L 212.25 202.5 L 209.25 201.75 L 209.25 200.25 C 210.75 199.5 210.75 199.5 213.375 199.3125 "/><path style=" stroke:none;fill-rule:nonzero;fill:#142743;fill-opacity:1;" d="M 189 98.25 C 190.625 98.410156 190.625 98.410156 192.75 99 C 194.757812 100.550781 194.757812 100.550781 196.734375 102.421875 L 198.742188 104.300781 L 200.25 105.75 L 198 105.75 C 196.359375 104.71875 196.359375 104.71875 195 103.5 L 195 102 L 193.265625 101.390625 C 191.34375 100.542969 190.351562 99.816406 189 98.25 "/><path style=" stroke:none;fill-rule:nonzero;fill:#142742;fill-opacity:1;" d="M 128.25 354 C 130.039062 354.179688 130.039062 354.179688 132.09375 354.65625 L 134.164062 355.117188 L 135.75 355.5 L 135.75 358.5 C 132.667969 357.652344 129.691406 356.75 126.75 355.5 Z M 72.75 330.75 C 75.632812 331.488281 77.179688 332.1875 79.40625 334.21875 L 81 336 C 78.742188 336 77.132812 335.996094 75 335.25 C 73.640625 332.953125 73.640625 332.953125 72.75 330.75 "/><path style=" stroke:none;fill-rule:nonzero;fill:#23374e;fill-opacity:1;" d="M 199.5 225 C 200.75 224.96875 202 224.96875 203.25 225 L 204 226.5 L 200.25 226.5 L 200.25 233.25 L 198.75 232.5 C 198.730469 231.390625 198.714844 230.28125 198.703125 229.171875 L 198.675781 227.300781 L 198.75 225.75 Z M 199.5 225 "/><path style=" stroke:none;fill-rule:nonzero;fill:#142742;fill-opacity:1;" d="M 225 230.25 L 228 231.75 L 227.25 236.25 L 224.25 234.75 Z M 219.75 181.5 C 223.40625 185.0625 223.40625 185.0625 224.25 186.75 L 219 187.5 Z M 219.75 181.5 "/><path style=" stroke:none;fill-rule:nonzero;fill:#16355c;fill-opacity:1;" d="M 153.75 300 L 156 300 C 156.988281 301.261719 156.988281 301.261719 157.921875 302.90625 C 158.957031 304.703125 159.773438 306.023438 161.25 307.5 C 159.902344 307.285156 159.902344 307.285156 158.25 306.75 C 156.972656 305.582031 156.972656 305.582031 155.8125 304.171875 L 154.628906 302.769531 L 153.75 301.5 Z M 153.75 300 "/><path style=" stroke:none;fill-rule:nonzero;fill:#142742;fill-opacity:1;" d="M 342.75 292.5 L 344.25 294.75 L 342.84375 294.890625 L 341.25 295.5 L 339.75 299.25 C 338.203125 299.742188 338.203125 299.742188 336.75 300 C 337.46875 299.03125 338.1875 298.0625 338.90625 297.09375 L 340.117188 295.457031 C 341.25 294 341.25 294 342.75 292.5 "/><path style=" stroke:none;fill-rule:nonzero;fill:#2b3843;fill-opacity:1;" d="M 136.5 285.75 C 138.75 286.5 138.75 286.5 140.390625 287.90625 L 141.75 289.5 L 141.75 291.75 L 138.75 291.75 C 136.5 287.4375 136.5 287.4375 136.5 285.75 "/><path style=" stroke:none;fill-rule:nonzero;fill:#142844;fill-opacity:1;" d="M 265.5 183.75 C 266.578125 183.964844 267.65625 184.183594 268.734375 184.40625 L 270.554688 184.773438 C 272.25 185.25 272.25 185.25 274.5 186.75 C 273.199219 187.214844 273.199219 187.214844 271.5 187.5 C 269.894531 186.917969 269.894531 186.917969 268.3125 186.046875 L 266.707031 185.183594 L 265.5 184.5 Z M 265.5 183.75 "/><path style=" stroke:none;fill-rule:nonzero;fill:#142944;fill-opacity:1;" d="M 358.5 109.5 C 359.917969 109.738281 359.917969 109.738281 361.5 110.25 C 362.8125 112.40625 362.8125 112.40625 363.75 114.75 L 363.75 117 L 362.25 116.25 C 361.554688 115.132812 360.898438 113.992188 360.28125 112.828125 L 359.265625 110.949219 Z M 358.5 109.5 "/><path style=" stroke:none;fill-rule:nonzero;fill:#162336;fill-opacity:1;" d="M 231 287.25 L 232.5 287.25 C 233.71875 288.984375 233.71875 288.984375 234.75 291 L 234.75 293.25 L 232.5 292.5 C 231.609375 291.09375 231.609375 291.09375 231 289.5 Z M 231 287.25 "/><path style=" stroke:none;fill-rule:nonzero;fill:#142743;fill-opacity:1;" d="M 22.5 274.5 L 24.75 274.5 C 26.015625 276.28125 26.015625 276.28125 27 278.25 L 27 279.75 L 24.75 279.75 C 23.484375 277.96875 23.484375 277.96875 22.5 276 Z M 22.5 274.5 "/><path style=" stroke:none;fill-rule:nonzero;fill:#1c2f47;fill-opacity:1;" d="M 193.5 225 L 195 225 L 196.5 228 L 194.25 228 L 194.71875 229.359375 L 195 231 L 193.5 233.25 Z M 193.5 225 "/><path style=" stroke:none;fill-rule:nonzero;fill:#142742;fill-opacity:1;" d="M 33.75 198.75 L 35.484375 199.453125 C 36.890625 200.007812 38.316406 200.523438 39.75 201 L 39.75 202.5 C 37.59375 202.3125 37.59375 202.3125 35.25 201.75 C 34.21875 200.203125 34.21875 200.203125 33.75 198.75 "/><path style=" stroke:none;fill-rule:nonzero;fill:#1b2f49;fill-opacity:1;" d="M 232.5 192 L 234.75 192.75 L 233.25 194.25 C 231.507812 194.550781 229.757812 194.804688 228 195 C 229.539062 193.3125 230.253906 192.75 232.5 192 "/><path style=" stroke:none;fill-rule:nonzero;fill:#223444;fill-opacity:1;" d="M 241.5 254.25 L 243 254.25 C 242.773438 255.253906 242.523438 256.253906 242.25 257.25 L 241.5 258 C 240.25 258.03125 239 258.03125 237.75 258 L 238.5 256.5 L 240.75 256.5 Z M 241.5 254.25 "/><path style=" stroke:none;fill-rule:nonzero;fill:#122f55;fill-opacity:1;" d="M 196.5 187.5 L 198 188.25 L 198 191.25 L 194.25 191.25 L 193.5 189.75 L 195.75 189.75 Z M 196.5 187.5 "/><path style=" stroke:none;fill-rule:nonzero;fill:#142844;fill-opacity:1;" d="M 214.5 178.5 L 216 178.5 L 215.25 184.5 L 213 183.75 Z M 214.5 178.5 "/><path style=" stroke:none;fill-rule:nonzero;fill:#142742;fill-opacity:1;" d="M 151.5 201 C 153.09375 201.328125 153.09375 201.328125 154.5 201.75 L 153 204 L 150 203.25 L 150 201.75 Z M 151.5 201 "/><path style=" stroke:none;fill-rule:nonzero;fill:#b8cad4;fill-opacity:1;" d="M 177.75 188.25 C 179.980469 189.09375 181.75 189.917969 183.75 191.25 C 182.4375 191.765625 182.4375 191.765625 180.75 192 C 179.0625 191.015625 179.0625 191.015625 177.75 189.75 Z M 177.75 188.25 "/></g></svg>